<svg version="1.2" xmlns="http://www.w3.org/2000/svg" viewBox="0 0 512 512" width="80" height="80">
	<title>clock-svg</title>
	<style>
		.s0 { fill: #ffffff } 
	</style>
	<path id="Layer" fill-rule="evenodd" class="s0" d="m256 0c141.4 0 256 114.6 256 256 0 141.4-114.6 256-256 256-141.4 0-256-114.6-256-256 0-141.4 114.6-256 256-256zm-208 256c0 114.9 93.1 208 208 208 114.9 0 208-93.1 208-208 0-114.9-93.1-208-208-208-114.9 0-208 93.1-208 208zm184-136c0-13.3 10.7-24 24-24 13.3 0 24 10.7 24 24v123.2l85.3 56.8c11 7.4 14 22.3 5.8 33.3-6.5 11-21.4 14-32.4 5.8l-96-64c-6.7-3.6-10.7-11.1-10.7-20z"/>
</svg>