<svg width="51" height="51" viewBox="0 0 51 51" fill="none" xmlns="http://www.w3.org/2000/svg">
<path d="M25.8809 49.6533L25.881 49.6529L27.5004 42.06L27.5649 41.7578H27.2559H21.1432C20.6513 41.7578 20.2539 41.3598 20.2539 40.8686C20.2539 40.3774 20.652 39.9793 21.1432 39.9793H48.6326H48.8826V39.7293V33.0383V32.7883H48.6326H44.8826C44.3908 32.7883 43.9934 32.3903 43.9934 31.899C43.9934 31.4079 44.3915 31.0098 44.8826 31.0098H49.771C50.2628 31.0098 50.6603 31.4078 50.6603 31.899L50.6611 40.8687C50.6611 41.3599 50.2629 41.758 49.7718 41.758H38.5547H38.3525L38.3102 41.9558L36.5878 50.0228L36.5877 50.0234C36.501 50.4341 36.1386 50.7268 35.7192 50.7268H26.7496C26.4816 50.7268 26.2275 50.6058 26.0591 50.3971L26.0588 50.3968C25.8901 50.1884 25.8246 49.9152 25.8809 49.6533ZM29.5858 41.758H29.3836L29.3413 41.9558L27.9129 48.6467L27.8484 48.9489H28.1574H34.7969H34.9991L35.0414 48.7511L36.4698 42.0602L36.5343 41.758H36.2253H29.5858Z" fill="#FFC18E" stroke="#1D1D1D" stroke-width="0.5"/>
<mask id="path-2-inside-1_1417_702" fill="white">
<path d="M18.6046 30.7639C18.5609 30.7639 18.522 30.7806 18.4799 30.7854C18.4242 30.7917 18.371 30.7989 18.3178 30.814C18.232 30.837 18.1533 30.8704 18.0763 30.9117C18.0318 30.9355 17.9881 30.9554 17.9476 30.984C17.8705 31.0396 17.8061 31.1071 17.745 31.1794C17.7164 31.2128 17.6838 31.2398 17.6592 31.2771C17.5821 31.3939 17.5209 31.5226 17.4907 31.6672L13.8695 48.7023H12.7564C12.1272 48.7023 11.6171 49.2124 11.6171 49.8416C11.6171 50.4708 12.1264 50.9809 12.7564 50.9809H14.7919C15.3289 50.9809 15.7937 50.6059 15.9049 50.0791L17.8029 41.1516C17.8069 41.1365 17.8172 41.1246 17.8204 41.1087L19.5277 33.0416H39.5332C39.6802 33.0416 39.8184 33.0091 39.9487 32.9574C39.9924 32.9399 40.0274 32.9121 40.0687 32.8899C40.1498 32.8462 40.2268 32.7993 40.2944 32.7374C40.3341 32.7016 40.3643 32.6611 40.3976 32.6198C40.4517 32.5546 40.4993 32.4879 40.5383 32.4116C40.5637 32.3608 40.5827 32.3099 40.601 32.2551C40.6145 32.2154 40.6392 32.1812 40.6479 32.1391L42.9964 21.0825H49.7723C50.4016 21.0825 50.9116 20.5725 50.9116 19.9433V10.9736C50.9116 10.3444 50.4024 9.83431 49.7723 9.83431H45.387L47.0005 2.23993C47.072 1.90388 46.987 1.55351 46.7717 1.28657C46.554 1.02121 46.2299 0.866292 45.8859 0.866292H36.9162C36.3776 0.866292 35.9128 1.24288 35.8016 1.76961L34.0879 9.83502H24.4645L26.0725 2.24064C26.144 1.90459 26.059 1.55422 25.8437 1.28728C25.626 1.02113 25.3011 0.866211 24.9579 0.866211H15.9882C15.4496 0.866211 14.9848 1.2428 14.8736 1.76952L12.9748 10.7392C12.9669 10.7749 12.9804 10.8107 12.9764 10.8464C12.9708 10.8909 12.9502 10.9291 12.9502 10.9751C12.9502 11.0276 12.9732 11.0721 12.9796 11.1229C12.9883 11.1904 12.9986 11.254 13.0193 11.3192C13.0495 11.4137 13.0948 11.4971 13.1472 11.5789C13.1702 11.6147 13.1758 11.6592 13.2036 11.6925C13.2155 11.7076 13.2346 11.7132 13.2473 11.7267C13.322 11.8101 13.4118 11.8729 13.5079 11.9317C13.5476 11.9555 13.5794 11.9889 13.6215 12.0079C13.7653 12.0723 13.9218 12.1136 14.0894 12.1136H33.604L32.2407 18.529L32.1819 18.8047H3.07551V12.1137H9.05461C9.68384 12.1137 10.1939 11.6037 10.1939 10.9744C10.1939 10.3452 9.68464 9.83515 9.05461 9.83515H1.93615C1.30692 9.83515 0.796875 10.3452 0.796875 10.9744V19.9441C0.796875 20.5733 1.30613 21.0834 1.93615 21.0834H10.7691L8.71232 30.7649L1.93636 30.7641C1.30713 30.7641 0.797077 31.2741 0.797077 31.9034V40.873C0.797077 41.5023 1.30633 42.0123 1.93636 42.0123H6.32255L4.70898 49.6051C4.63668 49.9411 4.72089 50.2915 4.93699 50.5584C5.15309 50.8254 5.47883 50.9803 5.82283 50.9803H8.39138C9.02061 50.9803 9.53066 50.4702 9.53066 49.841C9.53066 49.2118 9.0214 48.7017 8.39138 48.7017H7.23146L8.83628 41.1464C8.83946 41.1329 8.84899 41.1218 8.85217 41.1075L10.751 32.1378V32.1354L13.0978 21.0827H19.7387L18.524 26.795C18.3937 27.4107 18.7861 28.0153 19.4019 28.1456C20.0271 28.2814 20.6222 27.8834 20.7532 27.2685L22.0681 21.0827H31.6987L29.6419 30.7642L18.6046 30.7639ZM22.1359 9.83564H15.495L16.9116 3.1447H23.5525L22.1359 9.83564ZM6.80584 39.7332H3.07495V33.0422H8.2279L6.80584 39.7332ZM48.6339 12.1136V18.8045H43.4818L44.9102 12.1136H48.6339ZM34.5703 18.5289L36.1322 11.2111C36.1346 11.2016 36.1298 11.1921 36.1322 11.1825L37.8403 3.14416H44.4812L41.2462 18.3638L40.9594 19.7065C40.9594 19.7081 40.9602 19.7097 40.9594 19.7121L38.6117 30.764H31.9708L34.5703 18.5289Z"/>
</mask>
<path d="M18.6046 30.7639C18.5609 30.7639 18.522 30.7806 18.4799 30.7854C18.4242 30.7917 18.371 30.7989 18.3178 30.814C18.232 30.837 18.1533 30.8704 18.0763 30.9117C18.0318 30.9355 17.9881 30.9554 17.9476 30.984C17.8705 31.0396 17.8061 31.1071 17.745 31.1794C17.7164 31.2128 17.6838 31.2398 17.6592 31.2771C17.5821 31.3939 17.5209 31.5226 17.4907 31.6672L13.8695 48.7023H12.7564C12.1272 48.7023 11.6171 49.2124 11.6171 49.8416C11.6171 50.4708 12.1264 50.9809 12.7564 50.9809H14.7919C15.3289 50.9809 15.7937 50.6059 15.9049 50.0791L17.8029 41.1516C17.8069 41.1365 17.8172 41.1246 17.8204 41.1087L19.5277 33.0416H39.5332C39.6802 33.0416 39.8184 33.0091 39.9487 32.9574C39.9924 32.9399 40.0274 32.9121 40.0687 32.8899C40.1498 32.8462 40.2268 32.7993 40.2944 32.7374C40.3341 32.7016 40.3643 32.6611 40.3976 32.6198C40.4517 32.5546 40.4993 32.4879 40.5383 32.4116C40.5637 32.3608 40.5827 32.3099 40.601 32.2551C40.6145 32.2154 40.6392 32.1812 40.6479 32.1391L42.9964 21.0825H49.7723C50.4016 21.0825 50.9116 20.5725 50.9116 19.9433V10.9736C50.9116 10.3444 50.4024 9.83431 49.7723 9.83431H45.387L47.0005 2.23993C47.072 1.90388 46.987 1.55351 46.7717 1.28657C46.554 1.02121 46.2299 0.866292 45.8859 0.866292H36.9162C36.3776 0.866292 35.9128 1.24288 35.8016 1.76961L34.0879 9.83502H24.4645L26.0725 2.24064C26.144 1.90459 26.059 1.55422 25.8437 1.28728C25.626 1.02113 25.3011 0.866211 24.9579 0.866211H15.9882C15.4496 0.866211 14.9848 1.2428 14.8736 1.76952L12.9748 10.7392C12.9669 10.7749 12.9804 10.8107 12.9764 10.8464C12.9708 10.8909 12.9502 10.9291 12.9502 10.9751C12.9502 11.0276 12.9732 11.0721 12.9796 11.1229C12.9883 11.1904 12.9986 11.254 13.0193 11.3192C13.0495 11.4137 13.0948 11.4971 13.1472 11.5789C13.1702 11.6147 13.1758 11.6592 13.2036 11.6925C13.2155 11.7076 13.2346 11.7132 13.2473 11.7267C13.322 11.8101 13.4118 11.8729 13.5079 11.9317C13.5476 11.9555 13.5794 11.9889 13.6215 12.0079C13.7653 12.0723 13.9218 12.1136 14.0894 12.1136H33.604L32.2407 18.529L32.1819 18.8047H3.07551V12.1137H9.05461C9.68384 12.1137 10.1939 11.6037 10.1939 10.9744C10.1939 10.3452 9.68464 9.83515 9.05461 9.83515H1.93615C1.30692 9.83515 0.796875 10.3452 0.796875 10.9744V19.9441C0.796875 20.5733 1.30613 21.0834 1.93615 21.0834H10.7691L8.71232 30.7649L1.93636 30.7641C1.30713 30.7641 0.797077 31.2741 0.797077 31.9034V40.873C0.797077 41.5023 1.30633 42.0123 1.93636 42.0123H6.32255L4.70898 49.6051C4.63668 49.9411 4.72089 50.2915 4.93699 50.5584C5.15309 50.8254 5.47883 50.9803 5.82283 50.9803H8.39138C9.02061 50.9803 9.53066 50.4702 9.53066 49.841C9.53066 49.2118 9.0214 48.7017 8.39138 48.7017H7.23146L8.83628 41.1464C8.83946 41.1329 8.84899 41.1218 8.85217 41.1075L10.751 32.1378V32.1354L13.0978 21.0827H19.7387L18.524 26.795C18.3937 27.4107 18.7861 28.0153 19.4019 28.1456C20.0271 28.2814 20.6222 27.8834 20.7532 27.2685L22.0681 21.0827H31.6987L29.6419 30.7642L18.6046 30.7639ZM22.1359 9.83564H15.495L16.9116 3.1447H23.5525L22.1359 9.83564ZM6.80584 39.7332H3.07495V33.0422H8.2279L6.80584 39.7332ZM48.6339 12.1136V18.8045H43.4818L44.9102 12.1136H48.6339ZM34.5703 18.5289L36.1322 11.2111C36.1346 11.2016 36.1298 11.1921 36.1322 11.1825L37.8403 3.14416H44.4812L41.2462 18.3638L40.9594 19.7065C40.9594 19.7081 40.9602 19.7097 40.9594 19.7121L38.6117 30.764H31.9708L34.5703 18.5289Z" fill="#FFC18E" stroke="#1D1D1D" mask="url(#path-2-inside-1_1417_702)"/>
</svg>
