<svg width="55" height="61" viewBox="0 0 55 61" fill="none" xmlns="http://www.w3.org/2000/svg">
<path d="M43.644 12.6972C43.3604 12.4176 42.9858 12.2641 42.5872 12.2658L39.677 12.2813C39.4657 12.2833 39.2962 12.4546 39.298 12.6648C39.2987 12.8752 39.4714 13.0456 39.6816 13.0438L42.5918 13.0283C42.7867 13.0273 42.9698 13.1024 43.1078 13.2392C43.2459 13.3759 43.3235 13.5589 43.3243 13.7526L43.5363 52.6681C43.5374 52.863 43.4623 53.0461 43.3255 53.1841C43.1888 53.3222 43.0058 53.3998 42.8121 53.4006L13.1531 53.5624C12.7514 53.5646 12.4228 53.2397 12.4206 52.8381L12.2086 13.9226C12.2075 13.7277 12.2827 13.5447 12.4194 13.4066C12.5561 13.2685 12.7391 13.1909 12.9328 13.1901L36.2744 13.0626C36.4857 13.0606 36.6552 12.8893 36.6534 12.679C36.6527 12.4686 36.48 12.2982 36.2698 12.3001L28.0474 12.3446L28.0027 4.06017C28.0011 3.69243 27.5997 3.4655 27.2837 3.65359L12.3333 12.5549C12.1653 12.6298 12.0091 12.7346 11.8765 12.8695C11.5969 13.1531 11.4434 13.5277 11.4451 13.9263L11.6573 52.8427C11.6617 53.6651 12.3348 54.3305 13.1572 54.3261L42.8161 54.1639C42.9046 54.1633 42.9918 54.1553 43.0753 54.1401C43.7736 54.0131 44.3032 53.3983 44.2994 52.6641L44.0874 13.7486C44.0857 13.35 43.9283 12.9766 43.6448 12.6969L43.644 12.6972Z" fill="#FFC18E"/>
<path d="M6.30197 19.3718C6.20973 19.1824 5.98162 19.1032 5.79223 19.1955L3.24021 20.4378C3.05081 20.5301 2.97161 20.7582 3.06386 20.9476C3.14007 21.1055 3.3111 21.1863 3.47544 21.1564C3.50876 21.1504 3.54209 21.14 3.57482 21.1241L6.12685 19.8817C6.31484 19.7905 6.39404 19.5624 6.30197 19.3718L6.30197 19.3718Z" fill="#FFC18E"/>
<path d="M4.76355 10.5426L7.30428 11.8089C7.3809 11.8472 7.46389 11.8574 7.54203 11.8432C7.65695 11.8223 7.76022 11.7504 7.81617 11.6382C7.91041 11.4493 7.83322 11.2207 7.64432 11.1265L5.10359 9.86025C4.91469 9.76601 4.68616 9.8432 4.5919 10.0321C4.49899 10.2196 4.57472 10.4488 4.76355 10.5426L4.76355 10.5426Z" fill="#FFC18E"/>
<path d="M51.6625 35.4902C51.5551 35.3091 51.3223 35.2474 51.1404 35.3549L48.6929 36.7931C48.5118 36.9004 48.4502 37.134 48.5576 37.3152C48.6413 37.4574 48.8021 37.5255 48.9553 37.4976C48.9982 37.4898 49.0408 37.4742 49.0799 37.4516L51.5274 36.0134C51.7091 35.9051 51.7694 35.6714 51.6625 35.4902L51.6625 35.4902Z" fill="#FFC18E"/>
<path d="M50.7802 45.9976L48.149 44.9337C47.9542 44.8552 47.7307 44.9489 47.6524 45.1448C47.574 45.3407 47.6675 45.5631 47.8634 45.6414L50.4947 46.7053C50.564 46.7338 50.637 46.7391 50.7059 46.7266C50.8304 46.7039 50.9402 46.6198 50.9917 46.4941C51.0698 46.2995 50.9761 46.0759 50.7802 45.9976L50.7802 45.9976Z" fill="#FFC18E"/>
<path d="M35.3994 40.7216C35.5786 40.689 35.7129 40.5328 35.7119 40.3446C35.7112 40.1342 35.5385 39.9638 35.3283 39.9656L20.4862 40.0468C20.2758 40.0475 20.1054 40.2202 20.1073 40.4304C20.1079 40.6408 20.2806 40.8112 20.4908 40.8094L35.3329 40.7281C35.3563 40.7282 35.3779 40.7255 35.3994 40.7216L35.3994 40.7216Z" fill="#FFC18E"/>
<path d="M20.5155 45.372C20.304 45.3729 20.1347 45.5454 20.1365 45.7556C20.1372 45.966 20.3099 46.1364 20.5201 46.1346L35.3622 46.0533C35.3856 46.0534 35.4072 46.0507 35.4287 46.0468C35.6079 46.0142 35.7422 45.8579 35.7412 45.6698C35.7405 45.4594 35.5678 45.2889 35.3576 45.2908L20.5155 45.372Z" fill="#FFC18E"/>
<path d="M37.2123 35.3874C37.3916 35.3548 37.5258 35.1986 37.5248 35.0104C37.5241 34.8 37.3515 34.6296 37.1412 34.6314L18.6151 34.7324C18.4036 34.7333 18.2343 34.9058 18.2362 35.116C18.2368 35.3264 18.4095 35.4968 18.6197 35.4949L37.1458 35.394C37.1685 35.3946 37.1909 35.3913 37.2123 35.3874L37.2123 35.3874Z" fill="#FFC18E"/>
<path d="M25.2949 20.5122C22.8429 20.525 20.8599 22.5301 20.8738 24.982C20.8878 27.4338 22.8918 29.417 25.3436 29.4031C25.6081 29.4016 25.8664 29.3768 26.1173 29.3312C26.8037 29.2063 27.4347 28.9229 27.9724 28.5215C28.7356 29.0795 29.6532 29.3791 30.6163 29.3745C30.8808 29.373 31.1391 29.3482 31.39 29.3025C33.4718 28.9237 35.05 27.092 35.0374 24.9048C35.026 22.754 33.4805 20.9632 31.4445 20.5655L31.999 19.966C32.1138 19.8422 32.1335 19.6566 32.047 19.5117L31.725 18.9731C31.6564 18.857 31.5302 18.7857 31.3951 18.787L29.7192 18.7959C29.584 18.7971 29.4597 18.8684 29.3911 18.9854L29.0755 19.528C28.9901 19.6741 29.0114 19.8586 29.128 19.9815L29.689 20.5743C29.0522 20.7044 28.454 20.9731 27.9325 21.3648C27.1933 20.8238 26.28 20.5067 25.2949 20.5123L25.2949 20.5122ZM25.3402 28.6402C23.3101 28.6519 21.6482 27.0085 21.6377 24.9782C21.6281 23.1659 22.9345 21.6484 24.659 21.3346C24.867 21.2968 25.0818 21.2767 25.2997 21.2758C26.0569 21.2722 26.7629 21.4983 27.3515 21.8887C26.5681 22.7226 26.1403 23.8056 26.1464 24.9545C26.1527 26.1026 26.5927 27.1812 27.3844 28.0068C26.8004 28.4011 26.0971 28.6356 25.3402 28.6403L25.3402 28.6402ZM27.9683 27.5118C27.2903 26.8239 26.9147 25.9164 26.9091 24.9487C26.9037 23.9813 27.2696 23.0691 27.9398 22.3744C28.5906 23.0348 28.9959 23.9398 29.0014 24.9379C29.0078 25.9364 28.6124 26.845 27.9684 27.5118L27.9683 27.5118ZM29.9425 19.5576L31.1824 19.5513L31.246 19.6573L30.5673 20.3902L29.88 19.6644L29.9425 19.5576ZM29.9251 21.3061C30.1365 21.2676 30.3532 21.2472 30.5723 21.2461C32.6023 21.2344 34.2642 22.8779 34.2747 24.9081C34.2852 26.9383 32.6415 28.5991 30.6127 28.6105C29.8711 28.6149 29.1617 28.4004 28.5578 27.9982C29.3117 27.1962 29.7722 26.1163 29.7649 24.9321C29.7589 23.7487 29.2864 22.6743 28.5251 21.8809C28.9471 21.5948 29.4217 21.3976 29.9251 21.306L29.9251 21.3061Z" fill="#FFC18E"/>
</svg>
