<svg width="32" height="32" viewBox="0 0 32 32" fill="none" xmlns="http://www.w3.org/2000/svg">
<rect x="0.5" y="0.5" width="31" height="31" rx="4.5" fill="#1D1D1D" stroke="#FFBE82"/>
<path d="M20.832 10.6663C20.832 13.3369 18.6692 15.4997 15.9987 15.4997C13.3282 15.4997 11.1654 13.3369 11.1654 10.6663C11.1654 7.99582 13.3282 5.83301 15.9987 5.83301C18.6692 5.83301 20.832 7.99582 20.832 10.6663ZM5.83203 23.9997C5.83203 23.2966 6.18023 22.6438 6.83719 22.0375C7.49753 21.4281 8.43598 20.8999 9.5163 20.4671C11.6777 19.6013 14.2812 19.1663 15.9987 19.1663C17.7162 19.1663 20.3197 19.6013 22.4811 20.4671C23.5614 20.8999 24.4999 21.4281 25.1602 22.0375C25.8172 22.6438 26.1654 23.2966 26.1654 23.9997V26.1663H5.83203V23.9997Z" fill="#1D1D1D" stroke="#FFBE82"/>
</svg>
