<svg width="64" height="64" viewBox="0 0 64 64" fill="none" xmlns="http://www.w3.org/2000/svg">
<path d="M46.7125 33.4813C46.6875 29.2188 48.6187 26.0063 52.5187 23.6375C50.3375 20.5125 47.0375 18.7937 42.6875 18.4625C38.5688 18.1375 34.0625 20.8625 32.4125 20.8625C30.6687 20.8625 26.6813 18.575 23.5438 18.575C17.0688 18.675 10.1875 23.7375 10.1875 34.0375C10.1875 37.0812 10.7437 40.225 11.8562 43.4625C13.3437 47.725 18.7062 58.1688 24.3 58C27.225 57.9313 29.2937 55.925 33.1 55.925C36.7937 55.925 38.7062 58 41.9688 58C47.6125 57.9188 52.4625 48.425 53.875 44.15C46.3063 40.5813 46.7125 33.7 46.7125 33.4813ZM40.1437 14.4187C43.3125 10.6562 43.025 7.23125 42.9313 6C40.1313 6.1625 36.8937 7.90625 35.05 10.05C33.0187 12.35 31.825 15.1937 32.0812 18.4C35.1062 18.6312 37.8687 17.075 40.1437 14.4187Z" fill="#FFBE82"/>
</svg>
