<svg version="1.2" xmlns="http://www.w3.org/2000/svg" viewBox="0 0 448 512" width="50" height="50">
	<title>calendar-svg</title>
	<style>
		.s0 { fill: #585858 } 
	</style>
	<path id="Layer" fill-rule="evenodd" class="s0" d="m152 64h144v-40c0-13.3 10.7-24 24-24 13.3 0 24 10.8 24 24v40h40c35.3 0 64 28.7 64 64v320c0 35.3-28.7 64-64 64h-320c-35.4 0-64-28.7-64-64v-320c0-35.3 28.6-64 64-64h40v-40c0-13.3 10.7-24 24-24 13.3 0 24 10.8 24 24zm-104 384c0 8.8 7.2 16 16 16h320c8.8 0 16-7.2 16-16v-256h-352z"/>
</svg>