<svg width="23" height="28" viewBox="0 0 23 28" fill="none" xmlns="http://www.w3.org/2000/svg">
<path d="M16.021 27.0589H1.0717C0.883566 27.0589 0.703757 26.9889 0.575987 26.8659C0.448218 26.7428 0.383947 26.5778 0.398516 26.4108L2.07171 7.36384C2.09929 7.05103 2.3923 6.80957 2.74486 6.80957H18.2337C18.4247 6.80957 18.6071 6.88163 18.7352 7.00815C18.8632 7.13444 18.9251 7.30336 18.9054 7.47275L16.6924 26.5197C16.657 26.826 16.3669 27.0589 16.0211 27.0589L16.021 27.0589ZM1.80115 25.8565H15.4121L17.4853 8.01196H3.36869L1.80115 25.8565Z" fill="#FFBE82"/>
<path d="M21.9222 27.0591H16.0215C15.8302 27.0591 15.6481 26.987 15.5201 26.8605C15.392 26.7342 15.3301 26.5653 15.3499 26.3959L17.5625 7.34894C17.5974 7.05025 17.8743 6.82016 18.2112 6.80997C18.5482 6.79908 18.842 7.01272 18.8995 7.30862L22.5873 26.3556C22.6211 26.5303 22.5665 26.7094 22.4385 26.8452C22.3102 26.9807 22.1213 27.0591 21.9222 27.0591H21.9222ZM16.7701 25.8566H21.1207L18.4017 11.8133L16.7701 25.8566Z" fill="#FFBE82"/>
<path d="M14.7401 7.86743C14.3434 7.86743 14.0217 7.54605 14.0217 7.14909V5.05305C14.0217 3.06972 12.4081 1.45587 10.4245 1.45587C8.44119 1.45587 6.82734 3.06944 6.82734 5.05305V7.14909C6.82734 7.54576 6.50568 7.86743 6.10899 7.86743C5.7123 7.86743 5.39093 7.54605 5.39093 7.14909L5.39093 5.05305C5.39093 2.27746 7.64886 0.0195312 10.4245 0.0195312C13.2 0.0195312 15.458 2.27746 15.458 5.05305V7.14909C15.4582 7.54604 15.1367 7.86743 14.7401 7.86743Z" fill="#FFBE82"/>
<path d="M9.65196 20.4665C9.46152 20.4665 9.27882 20.3907 9.14401 20.2562C8.67731 19.7895 8.21088 19.3723 7.75969 18.9687C6.28594 17.6505 5.01315 16.5123 5.01315 14.7116C5.01315 13.2348 6.21479 12.0332 7.69159 12.0332C8.61367 12.0332 9.21324 12.3878 9.65168 12.8919C10.0904 12.3878 10.69 12.0332 11.6118 12.0332C13.0899 12.0332 14.2924 13.2348 14.2924 14.7116C14.2924 16.5117 13.0196 17.6494 11.5459 18.9671C11.0938 19.3712 10.6266 19.789 10.1593 20.2562C10.0251 20.3907 9.84239 20.4665 9.65195 20.4665H9.65196ZM7.69187 13.4696C7.00704 13.4696 6.44984 14.0268 6.44984 14.7116C6.44984 15.8698 7.40098 16.7208 8.71748 17.898C9.02253 18.1709 9.33422 18.4494 9.65203 18.7487C9.97064 18.4491 10.2834 18.1696 10.5891 17.8961C11.9056 16.7191 12.8564 15.869 12.8564 14.7116C12.8564 14.0268 12.2981 13.4696 11.6121 13.4696C11.0718 13.4696 10.7535 13.6246 10.2945 14.5428C10.1727 14.7861 9.92411 14.9398 9.652 14.9398C9.3799 14.9398 9.13132 14.7861 9.00953 14.5428C8.55057 13.6246 8.23194 13.4696 7.69189 13.4696H7.69187Z" fill="#FFBE82"/>
</svg>
