<svg width="30" height="30" viewBox="0 0 30 30" fill="none" xmlns="http://www.w3.org/2000/svg">
<path d="M15 28C13.2928 28 11.6023 27.6637 10.0251 27.0104C8.44788 26.3571 7.01477 25.3995 5.80761 24.1924C4.60045 22.9852 3.64288 21.5521 2.98957 19.9749C2.33626 18.3977 2 16.7072 2 15C2 13.2928 2.33626 11.6023 2.98957 10.0251C3.64288 8.44788 4.60045 7.01477 5.80761 5.80761C7.01477 4.60045 8.44788 3.64288 10.0251 2.98957C11.6023 2.33625 13.2928 2 15 2C18.4478 2 21.7544 3.36964 24.1924 5.80761C26.6304 8.24558 28 11.5522 28 15C28 18.4478 26.6304 21.7544 24.1924 24.1924C21.7544 26.6304 18.4478 28 15 28ZM15 28V13.1429C15 12.1578 15.3913 11.213 16.0879 10.5165C16.7845 9.8199 17.7292 9.42857 18.7143 9.42857H19.6429M10.3571 16.8571H19.6429" stroke="#FFBE82" stroke-width="2.25"/>
</svg>
