<svg width="60" height="60" viewBox="0 0 60 60" fill="none" xmlns="http://www.w3.org/2000/svg">
<g filter="url(#filter0_d_1068_1322)">
<g clip-path="url(#clip0_1068_1322)">
<path d="M55.9997 26.1591C55.9997 11.7096 44.3582 -0.00341797 29.9997 -0.00341797C15.6347 -0.000167968 3.99316 11.7096 3.99316 26.1623C3.99316 39.2176 13.5027 50.0401 25.9307 52.0031V33.7218H19.3332V26.1623H25.9372V20.3936C25.9372 13.8383 29.8209 10.2178 35.7587 10.2178C38.6057 10.2178 41.5794 10.7281 41.5794 10.7281V17.1631H38.3002C35.0729 17.1631 34.0654 19.1813 34.0654 21.2516V26.1591H41.2739L40.1234 33.7186H34.0622V51.9998C46.4902 50.0368 55.9997 39.2143 55.9997 26.1591Z" fill="#FFBE82"/>
</g>
</g>
<defs>
<filter id="filter0_d_1068_1322" x="0" y="0" width="60" height="60" filterUnits="userSpaceOnUse" color-interpolation-filters="sRGB">
<feFlood flood-opacity="0" result="BackgroundImageFix"/>
<feColorMatrix in="SourceAlpha" type="matrix" values="0 0 0 0 0 0 0 0 0 0 0 0 0 0 0 0 0 0 127 0" result="hardAlpha"/>
<feOffset dy="4"/>
<feGaussianBlur stdDeviation="2"/>
<feComposite in2="hardAlpha" operator="out"/>
<feColorMatrix type="matrix" values="0 0 0 0 0 0 0 0 0 0 0 0 0 0 0 0 0 0 0.25 0"/>
<feBlend mode="normal" in2="BackgroundImageFix" result="effect1_dropShadow_1068_1322"/>
<feBlend mode="normal" in="SourceGraphic" in2="effect1_dropShadow_1068_1322" result="shape"/>
</filter>
<clipPath id="clip0_1068_1322">
<rect width="52" height="52" fill="white" transform="translate(4)"/>
</clipPath>
</defs>
</svg>
