<svg width="64" height="64" viewBox="0 0 64 64" fill="none" xmlns="http://www.w3.org/2000/svg">
<path d="M57.2158 27.0775C57.5438 28.8348 57.7224 30.6722 57.7224 32.5895C57.7224 47.5868 47.6851 58.2508 32.5251 58.2508C29.0775 58.2519 25.6635 57.5736 22.4781 56.2548C19.2928 54.9359 16.3985 53.0023 13.9607 50.5645C11.5229 48.1267 9.58933 45.2325 8.27049 42.0471C6.95164 38.8618 6.27336 35.4478 6.27442 32.0002C6.27336 28.5526 6.95164 25.1386 8.27049 21.9532C9.58933 18.7679 11.5229 15.8736 13.9607 13.4358C16.3985 10.998 19.2928 9.06443 22.4781 7.74558C25.6635 6.42674 29.0775 5.74846 32.5251 5.74951C39.6131 5.74951 45.5358 8.35751 50.0798 12.5922L42.6797 19.9922V19.9735C39.9251 17.3495 36.4291 16.0028 32.5251 16.0028C23.8637 16.0028 16.8237 23.3202 16.8237 31.9842C16.8237 40.6455 23.8637 47.9788 32.5251 47.9788C40.3837 47.9788 45.7331 43.4855 46.8317 37.3148H32.5251V27.0775H57.2184H57.2158Z" fill="#FFBE82"/>
</svg>
