<svg width="70" height="60" viewBox="0 0 70 60" fill="none" xmlns="http://www.w3.org/2000/svg">
<g clip-path="url(#clip0_1535_2205)">
<path d="M63.5756 11.6062C56.6715 7.59443 47.8429 9.97819 43.8529 16.928L33.7955 34.4648C30.8854 39.529 34.632 41.2985 38.8095 43.8198L48.4871 49.442C51.7644 51.3449 55.9504 50.2154 57.8407 46.9209L68.18 28.8983C71.6531 22.8421 69.5922 15.1024 63.5756 11.6062Z" fill="#EA4335"/>
<path d="M52.1945 18.8645L42.5169 13.2421C37.1746 10.257 34.1491 10.0594 31.9559 13.5685L17.6824 38.4504C13.6969 45.3955 16.0692 54.278 22.9692 58.2809C28.9858 61.7772 36.6753 59.7028 40.1487 53.6466L54.6953 28.2837C56.5941 24.9851 55.4719 20.7672 52.1945 18.8645Z" fill="#FBBC04"/>
<path d="M54.0583 6.07427L47.2607 2.12225C39.7422 -2.24564 30.1283 0.344271 25.7886 7.91225L12.8465 30.4745C10.935 33.8034 12.07 38.0642 15.3771 39.9839L22.9895 44.4079C26.7487 46.5944 31.5534 45.2969 33.7256 41.5131L48.5109 15.7378C51.5747 10.3992 58.3553 8.5695 63.659 11.6534L54.0583 6.074V6.07427Z" fill="#34A853"/>
<path d="M27.6259 14.368L20.278 10.1071C17.0009 8.20861 12.8149 9.33374 10.9247 12.6241L2.1084 27.9577C-2.23098 35.5042 0.342023 45.1595 7.8606 49.515L13.4548 52.7578L20.2397 56.6919L23.184 58.397C17.9568 54.8751 16.2968 47.8182 19.4927 42.2603L21.7759 38.2915L30.135 23.7525C32.0211 20.4709 30.8989 16.2662 27.6259 14.3677V14.368Z" fill="#4285F4"/>
</g>
<defs>
<clipPath id="clip0_1535_2205">
<rect width="70" height="60" fill="white"/>
</clipPath>
</defs>
</svg>
