<svg width="48" height="27" viewBox="0 0 48 27" fill="none" xmlns="http://www.w3.org/2000/svg">
<path d="M26.0715 0.0195312C25.2051 0.0195312 24.6376 0.348133 24.2213 0.817916C23.805 0.348127 23.2375 0.0195312 22.371 0.0195312C20.9636 0.0195312 19.8188 1.16585 19.8188 2.5747C19.8188 4.71941 21.8039 6.70631 23.7238 8.62792C23.8557 8.76006 24.0348 8.83417 24.2215 8.83417C24.4081 8.83417 24.5872 8.76006 24.7191 8.62792C26.639 6.70631 28.6239 4.71916 28.6239 2.5747C28.6239 1.16585 27.4788 0.0195312 26.0715 0.0195312H26.0715ZM24.2213 7.13386C22.675 5.57298 21.2257 3.98605 21.2257 2.57463C21.2257 1.94129 21.7394 1.42632 22.371 1.42632C22.8795 1.42632 23.1614 1.5655 23.5919 2.42742C23.711 2.66583 23.9547 2.81656 24.2213 2.81656C24.4878 2.81656 24.7315 2.66583 24.8506 2.42742C25.2812 1.56549 25.563 1.42632 26.0712 1.42632C26.7028 1.42632 27.2168 1.94158 27.2168 2.57463C27.217 3.98573 25.7678 5.57272 24.2212 7.13386H24.2213Z" fill="#FFBE82"/>
<path d="M17.624 12.0639C17.624 13.0663 17.2136 14.0996 16.5372 14.8798C15.8622 15.6584 14.9722 16.1321 14.0376 16.1321C13.103 16.1321 12.2129 15.6584 11.538 14.8798C10.8615 14.0996 10.4512 13.0663 10.4512 12.0639C10.4512 10.0832 12.0569 8.47754 14.0376 8.47754C16.0183 8.47754 17.624 10.0832 17.624 12.0639Z" stroke="#FFBE82" stroke-width="1.5"/>
<path d="M7.67458 19.2181C8.26446 18.5176 9.13352 18.1133 10.0493 18.1133H18.3992C19.4373 18.1133 20.4066 18.6321 20.9824 19.4957L21.946 20.9412C23.3215 23.0044 21.8425 25.7679 19.3629 25.7679H8.83207C6.1924 25.7679 4.75704 22.6827 6.45734 20.6635L7.67458 19.2181Z" stroke="#FFBE82" stroke-width="1.5"/>
<path d="M38.824 12.0639C38.824 13.0663 38.4136 14.0996 37.7372 14.8798C37.0622 15.6584 36.1722 16.1321 35.2376 16.1321C34.303 16.1321 33.413 15.6584 32.738 14.8798C32.0616 14.0996 31.6512 13.0663 31.6512 12.0639C31.6512 10.0832 33.2569 8.47754 35.2376 8.47754C37.2183 8.47754 38.824 10.0832 38.824 12.0639Z" stroke="#FFBE82" stroke-width="1.5"/>
<path d="M28.8746 19.2181C29.4645 18.5176 30.3336 18.1133 31.2493 18.1133H39.5993C40.6373 18.1133 41.6067 18.6321 42.1824 19.4957L43.1461 20.9412C44.5215 23.0044 43.0425 25.7679 40.5629 25.7679H30.0321C27.3924 25.7679 25.9571 22.6827 27.6574 20.6635L28.8746 19.2181Z" stroke="#FFBE82" stroke-width="1.5"/>
</svg>
