<svg width="32" height="32" viewBox="0 0 32 32" fill="none" xmlns="http://www.w3.org/2000/svg">
<rect x="0.5" y="0.5" width="31" height="31" rx="4.5" fill="#1D1D1D" stroke="#FFBE82"/>
<g clip-path="url(#clip0_1157_141)">
<path d="M17.1475 8.32945L20.5031 11.685L11.3558 20.8323L11.3557 20.8322L11.3464 20.842C11.2557 20.9377 11.1105 21 10.951 21H8.41602C8.09632 21 7.83268 20.7364 7.83268 20.4167V17.8817C7.83268 17.73 7.89348 17.5813 8.00572 17.4608L17.1475 8.32945ZM22.3693 9.81877L19.014 6.46338L20.6429 4.83443L20.6433 4.83407C20.697 4.78017 20.7609 4.73742 20.8312 4.70825C20.9016 4.67908 20.977 4.66406 21.0531 4.66406C21.1292 4.66406 21.2046 4.67908 21.2749 4.70825L21.4662 4.24709L21.2749 4.70825C21.3453 4.73742 21.4092 4.78018 21.4629 4.83407L21.4633 4.83443L23.9983 7.36943C24.2255 7.59667 24.2255 7.96259 23.9983 8.18982L22.3693 9.81877ZM24.666 27.5H7.33268C6.41716 27.5 5.66602 26.7489 5.66602 25.8334C5.66602 24.9179 6.41716 24.1667 7.33268 24.1667H24.666C25.5815 24.1667 26.3327 24.9179 26.3327 25.8334C26.3327 26.7489 25.5815 27.5 24.666 27.5Z" fill="#1D1D1D" stroke="#FFBE82"/>
</g>
<defs>
<clipPath id="clip0_1157_141">
<rect width="26" height="26" fill="white" transform="translate(3 2)"/>
</clipPath>
</defs>
</svg>
