<svg width="32" height="32" viewBox="0 0 32 32" fill="none" xmlns="http://www.w3.org/2000/svg">
<rect x="0.5" y="0.5" width="31" height="31" rx="4.5" fill="#1D1D1D" stroke="#FFBE82"/>
<path d="M25.577 10.0412H16.4174C15.3341 9.98708 13.2053 7.75 11.9811 7.75H6.61864C6.46127 7.74996 6.30547 7.78138 6.16041 7.8424C6.01535 7.90343 5.88396 7.99284 5.77395 8.10538C5.66393 8.21791 5.57753 8.3513 5.5198 8.49771C5.46208 8.64412 5.4342 8.80058 5.43781 8.95792V8.95792V12.9067H26.5628V11.0542C26.5657 10.9226 26.5424 10.7918 26.4942 10.6694C26.446 10.547 26.3739 10.4354 26.2822 10.3411C26.1904 10.2468 26.0808 10.1718 25.9597 10.1203C25.8386 10.0688 25.7085 10.0419 25.577 10.0412V10.0412Z" stroke="#FFBE82" stroke-width="1.25" stroke-linecap="round" stroke-linejoin="round"/>
<path d="M26.5626 12.9014H5.43755V23.0414C5.43612 23.1969 5.46543 23.3512 5.52379 23.4953C5.58216 23.6395 5.66843 23.7707 5.77765 23.8814C5.88686 23.9922 6.01688 24.0802 6.16023 24.1406C6.30358 24.2009 6.45744 24.2323 6.61297 24.233H25.3817C25.5377 24.233 25.6921 24.2021 25.8361 24.1421C25.9801 24.0821 26.1108 23.9942 26.2205 23.8834C26.3303 23.7726 26.4171 23.6411 26.4758 23.4966C26.5345 23.3521 26.564 23.1973 26.5626 23.0414V23.0414V12.9014Z" stroke="#FFBE82" stroke-width="1.25" stroke-linecap="round" stroke-linejoin="round"/>
</svg>
