<svg width="32" height="32" viewBox="0 0 32 32" fill="none" xmlns="http://www.w3.org/2000/svg">
<rect x="0.5" y="0.5" width="31" height="31" rx="4.5" fill="#1D1D1D" stroke="#FFBE82"/>
<path d="M24.125 10.3125H7.875C6.52881 10.3125 5.4375 11.4038 5.4375 12.75V22.5C5.4375 23.8462 6.52881 24.9375 7.875 24.9375H24.125C25.4712 24.9375 26.5625 23.8462 26.5625 22.5V12.75C26.5625 11.4038 25.4712 10.3125 24.125 10.3125Z" stroke="#FFBE82" stroke-linejoin="round"/>
<path d="M23.8894 10.3127V8.78922C23.8893 8.41558 23.8067 8.04656 23.6475 7.70851C23.4884 7.37046 23.2566 7.0717 22.9686 6.83355C22.6807 6.5954 22.3438 6.42373 21.9819 6.33078C21.62 6.23784 21.242 6.22592 20.875 6.29586L7.50125 8.57848C6.92048 8.68916 6.39653 8.99904 6.01978 9.45468C5.64303 9.91032 5.4371 10.4832 5.4375 11.0744V13.5627" stroke="#FFBE82" stroke-linejoin="round"/>
<path d="M21.6875 19.25C21.3661 19.25 21.0519 19.1547 20.7847 18.9761C20.5175 18.7976 20.3092 18.5438 20.1862 18.2469C20.0632 17.9499 20.031 17.6232 20.0937 17.308C20.1564 16.9928 20.3112 16.7032 20.5385 16.476C20.7657 16.2487 21.0553 16.0939 21.3705 16.0312C21.6857 15.9685 22.0124 16.0007 22.3094 16.1237C22.6063 16.2467 22.8601 16.455 23.0386 16.7222C23.2172 16.9894 23.3125 17.3036 23.3125 17.625C23.3125 18.056 23.1413 18.4693 22.8365 18.774C22.5318 19.0788 22.1185 19.25 21.6875 19.25Z" fill="#FFBE82"/>
</svg>
