<svg width="71" height="20" viewBox="0 0 71 20" fill="none" xmlns="http://www.w3.org/2000/svg">
<path d="M69.7671 5.89823C69.1291 4.24195 67.3973 3.05296 65.3693 3.05296H65.3237C64.0021 3.05296 62.8115 3.55659 61.9627 4.36137C61.1139 3.55659 59.9233 3.05296 58.6017 3.05296H58.5618C57.3997 3.05296 56.3345 3.44237 55.5199 4.081V3.75909C55.4914 3.43198 55.2008 3.17757 54.8363 3.17757H51.7145C51.3328 3.17757 51.0252 3.45794 51.0252 3.80582V19.2471C51.0252 19.595 51.3328 19.8754 51.7145 19.8754H54.8363C55.1838 19.8754 55.4743 19.6366 55.5142 19.3354V8.25026C55.5142 8.20872 55.5142 8.17757 55.5199 8.14123C55.5711 7.64798 55.9699 7.2378 56.5965 7.19107H57.1719C57.4339 7.21184 57.6561 7.29491 57.827 7.42471C58.1004 7.62201 58.2485 7.92316 58.2485 8.25545L58.2599 19.2835C58.2599 19.6314 58.5675 19.9169 58.9492 19.9169H62.071C62.4412 19.9169 62.7375 19.6521 62.7546 19.3198V8.24507C62.7546 7.88162 62.9368 7.54933 63.2616 7.35722C63.4211 7.26376 63.6147 7.20145 63.8369 7.18069H64.4123C65.0902 7.23261 65.4946 7.6999 65.4946 8.24507L65.506 19.2627C65.506 19.6106 65.8136 19.891 66.1953 19.891H69.3171C69.6816 19.891 69.9836 19.6314 70.0063 19.3043V7.22222C69.9893 6.54206 69.8924 6.22534 69.7671 5.89823ZM48.644 3.21911H46.861V0.581516C46.861 0.576324 46.861 0.576324 46.861 0.571132C46.861 0.259605 46.5819 0 46.2287 0C46.1888 0 46.1489 0.00519211 46.1091 0.0103842C44.1323 0.503635 44.5254 3.00104 40.9137 3.21391H40.5662C40.515 3.21391 40.4637 3.21911 40.4124 3.22949H40.4067H40.4124C40.1105 3.29699 39.877 3.54621 39.877 3.84735V6.69263C39.877 7.0405 40.1846 7.32087 40.5662 7.32087H42.4461L42.4404 19.3769C42.4404 19.7196 42.748 20 43.124 20H46.2116C46.5876 20 46.8952 19.7196 46.8952 19.3769V7.32087H48.644C49.02 7.32087 49.3333 7.03531 49.3333 6.69263V3.84735C49.3333 3.49948 49.0257 3.21911 48.644 3.21911Z" fill="#00BAF2"/>
<path d="M37.4211 3.21906H34.2993C33.9233 3.21906 33.61 3.49943 33.61 3.8473V9.72996C33.6043 10.0934 33.2796 10.3842 32.8809 10.3842H31.5763C31.1719 10.3842 30.8415 10.0882 30.8415 9.71958L30.8301 3.8473C30.8301 3.49943 30.5225 3.21906 30.1408 3.21906H27.019C26.6374 3.21906 26.3298 3.49943 26.3298 3.8473V10.2907C26.3298 12.7362 28.2438 14.4859 30.9326 14.4859C30.9326 14.4859 32.9492 14.4859 33.0119 14.4963C33.3765 14.5327 33.6556 14.813 33.6556 15.1557C33.6556 15.4932 33.3822 15.7736 33.0176 15.8151C33.0005 15.8151 32.9834 15.8203 32.9663 15.8255L28.4033 15.8411C28.0217 15.8411 27.714 16.1214 27.714 16.4693V19.3094C27.714 19.6573 28.0217 19.9376 28.4033 19.9376H33.5018C36.1906 19.9376 38.1047 18.1931 38.1047 15.7476V3.8473C38.1104 3.49943 37.8027 3.21906 37.4211 3.21906ZM19.6704 3.23464H15.341C14.9593 3.23464 14.646 3.49943 14.646 3.82134V4.92726C14.646 4.93245 14.646 4.94284 14.646 4.94803C14.646 4.95842 14.646 4.96361 14.646 4.97399V6.49009C14.646 6.83277 14.9764 7.11833 15.3809 7.11833H19.5052C19.8299 7.16506 20.0863 7.38313 20.1261 7.72062V8.08926C20.092 8.41117 19.8356 8.64481 19.5223 8.67077H17.4829C14.7656 8.67077 12.8345 10.3167 12.8345 12.622V15.9293C12.8345 18.2242 14.4979 19.8546 17.1924 19.8546H22.8491C23.8631 19.8546 24.6891 19.1536 24.6891 18.2917V7.50255C24.6891 4.88573 23.208 3.23464 19.6704 3.23464ZM20.166 15.1038V15.5503C20.166 15.5867 20.1603 15.623 20.1546 15.6542C20.1489 15.6853 20.1375 15.7165 20.1261 15.7476C20.0293 15.9968 19.7559 16.1786 19.4312 16.1786H18.1323C17.7279 16.1786 17.3975 15.8982 17.3975 15.5503V15.0155C17.3975 15.0103 17.3975 15 17.3975 14.9948V13.5669V13.1204V13.1152C17.3975 12.7725 17.7279 12.4922 18.1323 12.4922H19.4312C19.8356 12.4922 20.166 12.7725 20.166 13.1204V15.1038ZM7.49675 3.21387H0.677897C0.301921 3.21387 0 3.49424 0 3.83173V6.61989C0 6.62508 0 6.63027 0 6.63547C0 6.65104 0 6.66143 0 6.67181V19.2834C0 19.6261 0.279134 19.9065 0.632324 19.9117H3.81104C4.19271 19.9117 4.50033 19.6313 4.50033 19.2834L4.51172 14.9636H7.49675C9.99186 14.9636 11.735 13.3852 11.735 11.0955V7.08718C11.735 4.80265 9.99186 3.21387 7.49675 3.21387ZM7.22331 8.42674V10.1817C7.22331 10.5503 6.8986 10.8515 6.49414 10.8515H4.51742V7.3364H6.49414C6.8986 7.3364 7.22331 7.63235 7.22331 8.00099V8.42674Z" fill="#20336B"/>
</svg>
