<svg width="60" height="60" viewBox="0 0 60 60" fill="none" xmlns="http://www.w3.org/2000/svg">
<g clip-path="url(#clip0_1535_2214)">
<path d="M36.8955 0.810392C31.123 -0.552597 25.0759 -0.173271 19.5189 1.9004C13.9619 3.97408 9.14455 7.64897 5.67605 12.4604C2.20755 17.2718 0.243641 23.0037 0.0326573 28.9313C-0.178326 34.8588 1.37309 40.7158 4.49073 45.7617C7.60838 50.8075 12.1522 54.8156 17.5477 57.2791C22.9432 59.7427 28.9481 60.551 34.8029 59.6018C40.6578 58.6527 46.0998 55.9888 50.4407 51.9469C54.7816 47.905 57.8266 42.6667 59.1905 36.8944C60.0962 33.0611 60.238 29.087 59.6077 25.199C58.9774 21.311 57.5874 17.5852 55.5171 14.2344C53.4468 10.8836 50.7367 7.9735 47.5416 5.67019C44.3465 3.36687 40.7289 1.71551 36.8955 0.810392Z" fill="#5F259F"/>
<path d="M43.6123 22.1729C43.5961 21.6028 43.3607 21.0608 42.9551 20.6598C42.5495 20.2587 42.0049 20.0294 41.4346 20.0196H37.4112L28.1973 9.43856C27.7663 8.95429 27.2064 8.60258 26.5831 8.42448C25.9597 8.24638 25.2986 8.24923 24.6768 8.4327L21.4834 9.43856C21.3699 9.47704 21.2675 9.54241 21.1848 9.6291C21.102 9.71579 21.0416 9.82122 21.0084 9.93638C20.9753 10.0515 20.9706 10.173 20.9946 10.2904C21.0187 10.4078 21.0708 10.5176 21.1465 10.6104L31.21 20.1612H15.9658C15.8551 20.1563 15.7446 20.1746 15.6413 20.2149C15.5381 20.2552 15.4444 20.3166 15.3662 20.3952C15.2881 20.4738 15.2272 20.5679 15.1875 20.6714C15.1478 20.7748 15.1302 20.8855 15.1358 20.9962V22.671C15.1458 23.2454 15.3785 23.7935 15.7847 24.1998C16.191 24.606 16.7391 24.8387 17.3135 24.8487H19.6621V32.8956C19.6621 38.9259 22.8457 42.4464 28.2071 42.4464C29.8126 42.4957 31.4107 42.2096 32.8994 41.6065V46.9776C32.8948 47.3309 32.961 47.6816 33.0941 48.0089C33.2272 48.3362 33.4245 48.6335 33.6744 48.8834C33.9242 49.1332 34.2215 49.3305 34.5488 49.4636C34.8762 49.5967 35.2268 49.6629 35.5801 49.6583H37.9238C38.1846 49.6401 38.43 49.5283 38.6148 49.3434C38.7997 49.1586 38.9115 48.9132 38.9297 48.6524V24.6876H42.7725C42.8844 24.694 42.9965 24.6766 43.1013 24.6366C43.206 24.5967 43.3012 24.5351 43.3805 24.4558C43.4598 24.3765 43.5214 24.2813 43.5614 24.1765C43.6013 24.0717 43.6187 23.9597 43.6123 23.8477V22.1729ZM32.8701 36.5821C31.8133 37.0444 30.669 37.2726 29.5156 37.2511C26.835 37.2511 25.4971 35.9132 25.4971 32.8956V24.8536H32.8701V36.5724V36.5821Z" fill="white"/>
</g>
<defs>
<clipPath id="clip0_1535_2214">
<rect width="60" height="60" fill="white"/>
</clipPath>
</defs>
</svg>
