<svg width="26" height="26" viewBox="0 0 26 26" fill="none" xmlns="http://www.w3.org/2000/svg">
<path fill-rule="evenodd" clip-rule="evenodd" d="M17.8425 26V15.9315H21.2225L21.7282 12.0081H17.8412V9.503C17.8412 8.3668 18.1571 7.592 19.7873 7.592H21.8647V4.082C20.8586 3.97494 19.8475 3.92286 18.8357 3.926C15.8405 3.926 13.7904 5.7551 13.7904 9.113V12.0081H10.4V15.9315H13.7891V26H1.4352C0.6422 26 0 25.3578 0 24.5648V1.4352C0 0.6422 0.6422 0 1.4352 0H24.5648C25.3578 0 26 0.6422 26 1.4352V24.5648C26 25.3578 25.3578 26 24.5648 26H17.8425Z" fill="#FFC18E"/>
</svg>
