<svg width="28" height="22" viewBox="0 0 28 22" fill="none" xmlns="http://www.w3.org/2000/svg">
<path d="M17.9088 9.31562L12.7736 6.41162C12.4721 6.24114 12.1302 6.15153 11.7823 6.15178C11.4344 6.15203 11.0927 6.24214 10.7915 6.41306C10.4902 6.58398 10.24 6.8297 10.066 7.12557C9.89199 7.42144 9.80025 7.75706 9.8 8.09875V13.904C9.7958 14.5998 10.1738 15.2433 10.7884 15.587C11.0897 15.7599 11.4323 15.8512 11.7813 15.8517C12.1303 15.8522 12.4732 15.7618 12.775 15.5898L17.9088 12.6858C18.2104 12.5155 18.4609 12.2701 18.6351 11.9744C18.8093 11.6786 18.9011 11.343 18.9011 11.0014C18.9011 10.6597 18.8093 10.3241 18.6351 10.0284C18.4609 9.73266 18.2104 9.48728 17.9088 9.317V9.31562ZM17.2088 11.4909L12.0764 14.3963C11.9875 14.4475 11.8862 14.4745 11.7831 14.4745C11.68 14.4745 11.5787 14.4475 11.4898 14.3963C11.4008 14.3468 11.327 14.2747 11.276 14.1877C11.225 14.1006 11.1988 14.0017 11.2 13.9012V8.09875C11.199 7.99855 11.2254 7.89992 11.2763 7.81311C11.3273 7.7263 11.401 7.65449 11.4898 7.60513C11.578 7.55242 11.6792 7.52455 11.7824 7.52455C11.8856 7.52455 11.9868 7.55242 12.075 7.60513L17.2088 10.5105C17.2973 10.5596 17.371 10.6309 17.4223 10.7172C17.4735 10.8034 17.5005 10.9015 17.5005 11.0014C17.5005 11.1012 17.4735 11.1993 17.4223 11.2856C17.371 11.3718 17.2973 11.4431 17.2088 11.4922V11.4909ZM23.8 0H4.2C3.08643 0.00109205 2.01879 0.436039 1.23138 1.20939C0.443968 1.98274 0.0011119 3.03132 0 4.125V17.875C0.0011119 18.9687 0.443968 20.0173 1.23138 20.7906C2.01879 21.564 3.08643 21.9989 4.2 22H23.8C24.9136 21.9989 25.9812 21.564 26.7686 20.7906C27.556 20.0173 27.9989 18.9687 28 17.875V4.125C27.9989 3.03132 27.556 1.98274 26.7686 1.20939C25.9812 0.436039 24.9136 0.00109205 23.8 0ZM26.6 17.875C26.5989 18.604 26.3035 19.3029 25.7787 19.8183C25.2538 20.3338 24.5423 20.6239 23.8 20.625H4.2C3.45773 20.6239 2.74619 20.3338 2.22133 19.8183C1.69647 19.3029 1.40111 18.604 1.4 17.875V4.125C1.40111 3.39599 1.69647 2.69715 2.22133 2.18166C2.74619 1.66617 3.45773 1.37609 4.2 1.375H23.8C24.5423 1.37609 25.2538 1.66617 25.7787 2.18166C26.3035 2.69715 26.5989 3.39599 26.6 4.125V17.875Z" fill="#FFC18E"/>
</svg>
