<svg width="29" height="21" viewBox="0 0 29 21" fill="none" xmlns="http://www.w3.org/2000/svg">
<path d="M26.2679 1H2.94369C2.42819 1 1.9338 1.20478 1.56929 1.56929C1.20478 1.9338 1 2.42819 1 2.94369V18.4932C1 19.0087 1.20478 19.5031 1.56929 19.8676C1.9338 20.2321 2.42819 20.4369 2.94369 20.4369H26.2679C26.7834 20.4369 27.2778 20.2321 27.6423 19.8676C28.0068 19.5031 28.2116 19.0087 28.2116 18.4932V2.94369C28.2116 2.42819 28.0068 1.9338 27.6423 1.56929C27.2778 1.20478 26.7834 1 26.2679 1ZM24.1299 2.94369L14.6058 9.53278L5.08174 2.94369H24.1299ZM2.94369 18.4932V3.82806L14.0519 11.5153C14.2145 11.6282 14.4078 11.6887 14.6058 11.6887C14.8038 11.6887 14.9971 11.6282 15.1598 11.5153L26.2679 3.82806V18.4932H2.94369Z" fill="#FFC18E" stroke="black" stroke-width="0.176568"/>
</svg>
