<svg version="1.2" xmlns="http://www.w3.org/2000/svg" viewBox="0 0 512 512" width="512" height="512">
	<title>radio_check-svg</title>
	<style>
		.s0 { fill: #ffbe82 } 
	</style>
	<path id="Layer" fill-rule="evenodd" class="s0" d="m512 256c0 141.4-114.6 256-256 256-141.4 0-256-114.6-256-256 0-141.4 114.6-256 256-256 141.4 0 256 114.6 256 256zm-256-208c-114.9 0-208 93.1-208 208 0 114.9 93.1 208 208 208 114.9 0 208-93.1 208-208 0-114.9-93.1-208-208-208zm-96 208c0-53.9 42.1-96 96-96 53 0 96 42.1 96 96 0 53-43 96-96 96-53.9 0-96-43-96-96z"/>
</svg>