<svg width="27" height="27" viewBox="0 0 27 27" fill="none" xmlns="http://www.w3.org/2000/svg">
<path d="M10.3521 13.7734C14.6798 10.7222 14.726 9.21734 14.726 8.35292L10.3521 13.7734ZM10.3521 13.7734L10.0424 13.5593C10.0007 13.5305 9.95949 13.5019 9.91864 13.4734M10.3521 13.7734L6.20166 7.07144C6.59281 6.72038 7.13406 6.51483 7.70843 6.51396C8.47102 6.52137 9.14731 6.89071 9.50159 7.44668L9.91844 8.10085L10.3355 7.44678C10.69 6.89065 11.3662 6.52138 12.1287 6.51396C12.7033 6.51484 13.2445 6.7204 13.6356 7.07143L13.9659 6.70359L13.6357 7.07151C14.0256 7.42166 14.2322 7.88367 14.2315 8.35224V8.35292C14.2315 8.566 14.2279 8.77996 14.1657 9.03978C14.1037 9.29853 13.9784 9.6221 13.7133 10.0264C13.1863 10.8298 12.1134 11.9429 9.91864 13.4734M9.91864 13.4734C9.8778 13.5019 9.83657 13.5305 9.79494 13.5593C9.83691 13.5305 9.88083 13.52 9.91854 13.52C9.95629 13.52 10.0003 13.5306 10.0423 13.5594C10.0427 13.5597 10.0431 13.56 10.0435 13.5603L9.9191 13.7389L9.91854 13.7398L9.79087 13.9231L9.79084 13.9232L9.76121 13.9657M9.91864 13.4734C7.72393 11.9429 6.65101 10.8298 6.12405 10.0263C5.85888 9.62199 5.73355 9.29842 5.67158 9.03967C5.60936 8.77986 5.60576 8.56592 5.60576 8.35292L5.60576 8.35205C5.60493 7.88373 5.81159 7.42173 6.20159 7.0715L9.76121 13.9657M9.76121 13.9657V13.4716H9.761H9.06413C5.15446 10.622 5.11133 9.18812 5.11133 8.35292C5.11024 7.73452 5.38381 7.14131 5.87132 6.70356L9.76121 13.9657Z" stroke="#FFBE82" stroke-width="0.988858"/>
<circle cx="9.9999" cy="9.90811" r="9.08858" stroke="#FFBE82" stroke-width="1.6"/>
<path d="M16.6228 16.2441L16.0368 15.6995L14.9476 16.8715L15.5337 17.4161L16.6228 16.2441ZM25.4222 26.6055C25.7459 26.9063 26.2521 26.8877 26.5528 26.5641C26.8536 26.2404 26.8351 25.7342 26.5114 25.4335L25.4222 26.6055ZM15.5337 17.4161L25.4222 26.6055L26.5114 25.4335L16.6228 16.2441L15.5337 17.4161Z" fill="#FFBE82"/>
</svg>
