<svg width="48" height="47" viewBox="0 0 48 47" fill="none" xmlns="http://www.w3.org/2000/svg">
<path d="M11.4129 37.9516C11.4431 38.0218 11.4851 38.0901 11.5453 38.1422L19.2046 44.6046C19.2971 44.6809 19.4114 44.723 19.528 44.723H30.9225H30.9245H30.9265H30.9447C31.9509 44.6867 32.9369 44.3935 33.8326 43.8475C35.8852 42.3535 36.7004 39.7388 35.871 37.3729C35.8428 37.2764 35.8149 37.1843 35.7826 37.0939C35.355 35.8688 34.4772 34.8847 33.3085 34.3226C32.1436 33.7601 30.8284 33.6858 29.5472 34.134C28.3785 34.6944 27.6234 35.8933 27.6234 37.1883C27.6254 39.018 29.0835 40.5019 30.895 40.5661C30.9051 40.5661 30.9131 40.5782 30.9232 40.5782C31.789 40.5782 32.4916 41.2832 32.4916 42.1466C32.4916 42.9922 31.8169 43.6729 30.9794 43.7029C30.9552 43.7049 30.9333 43.713 30.9091 43.715H20.0991L21.2919 34.3371C21.302 34.2588 21.2879 34.1805 21.2617 34.1082C21.2596 34.1021 21.2637 34.0981 21.2617 34.092L12.2659 10.9632C12.2639 10.9552 12.27 10.9471 12.2659 10.937L11.0811 7.89642C11.0791 7.89071 11.071 7.88869 11.067 7.88264L10.2158 5.68965C9.49057 3.83017 7.38397 2.9083 5.52441 3.63109L2.40955 4.83603C0.56212 5.56122 -0.361724 7.65981 0.353321 9.51326L11.4009 37.9404C11.4029 37.9464 11.411 37.9464 11.413 37.9521L11.4129 37.9516ZM11.1395 10.8387L7.15721 12.3909H7.15519C7.15519 12.3909 7.15519 12.3929 7.15318 12.3929L3.1588 13.9492L2.33948 11.8446L10.3222 8.73372L11.1395 10.8387ZM7.051 13.5115L15.6801 35.7323L13.3586 36.638L12.1556 37.108L3.52053 14.8889L7.051 13.5115ZM31.0956 39.6105C31.0653 39.6045 31.0455 39.5762 31.0112 39.5762C29.6976 39.5762 28.6276 38.5057 28.6255 37.1905C28.6255 36.2787 29.1577 35.4352 29.929 35.0617C30.8949 34.7205 31.9411 34.7787 32.8711 35.2265C33.797 35.6723 34.4936 36.4516 34.8351 37.4276C34.8614 37.4978 34.8812 37.5701 34.9115 37.6747C35.5983 39.6267 34.9458 41.7494 33.3289 42.9644C33.4174 42.7032 33.4937 42.4363 33.4937 42.1471C33.4957 40.7896 32.4293 39.703 31.0956 39.6105L31.0956 39.6105ZM19.4378 40.9483L17.3792 41.7494L12.8388 37.9177L16.5057 36.4879C16.5077 36.4879 16.5118 36.4879 16.5138 36.4859C16.5158 36.4859 16.5158 36.4838 16.5158 36.4838L20.1888 35.05L19.4378 40.9483ZM16.6164 35.3653L7.98474 13.1463L11.5031 11.7745L20.1425 33.9893L16.6164 35.3653ZM2.7751 5.77202L5.88798 4.56708C6.1993 4.4447 6.51869 4.38823 6.83575 4.38823C7.88405 4.38823 8.87614 5.02096 9.27988 6.05509L9.95665 7.79829L1.97195 10.9112L1.28913 9.15385C0.773061 7.81241 1.43975 6.29616 2.77516 5.77201L2.7751 5.77202Z" fill="#F1B583"/>
<path d="M46.3786 2.68257C44.8547 1.02578 42.2498 -0.0547972 39.8358 0.0235239C36.4981 0.232305 33.4679 2.0659 31.7404 4.91351C31.0536 5.97997 30.5916 7.15057 30.3607 8.40396C29.5212 13.338 32.9794 17.429 36.0842 20.0213C34.2545 19.6175 32.349 19.6317 30.5012 20.1699C28.0672 20.9391 26.33 23.1701 26.1774 25.7468C26.1734 26.8633 26.4786 27.9579 27.0649 28.9078C27.9024 30.2694 29.2196 31.2212 30.7743 31.5907C32.3265 31.9642 33.9312 31.7033 35.2548 30.8857C37.6728 29.6645 40.6169 30.1023 42.5628 31.95C43.8077 33.2656 44.4667 35.0548 44.3742 36.8764C44.3682 37.3682 44.308 37.8624 44.1934 38.3522C44.1792 38.3902 44.1631 38.4286 44.1493 38.4665C44.1231 38.5328 44.1113 38.601 44.113 38.6713C43.7092 40.1274 42.8439 41.5371 41.5848 42.7621C39.691 44.6038 37.2189 45.7022 34.9273 45.7304H34.9092H6.8203C6.54327 45.7304 6.31836 45.9553 6.31836 46.2324C6.31836 46.5094 6.54328 46.7343 6.8203 46.7343H34.731H34.8514C37.4159 46.7343 40.1872 45.5233 42.2877 43.483C43.7616 42.047 44.7497 40.3681 45.1636 38.641C45.8524 36.8417 46.1759 34.9498 46.1234 32.9958C45.9247 29.9916 44.9225 27.0895 43.2176 24.5895C42.2977 23.3264 41.1049 22.2721 39.7171 21.4568C39.6989 21.4407 39.6989 21.4128 39.6771 21.4007C39.2955 21.1576 38.8456 20.8604 38.3578 20.5132C37.0285 18.4408 35.7089 15.5731 36.7875 13.4883C37.3176 12.486 38.2573 11.7814 39.3721 11.5504C40.0449 11.4018 40.7458 11.426 41.4889 11.4559C42.3445 11.4882 43.226 11.5181 44.1317 11.269C46.112 10.6322 47.5519 8.88734 47.7986 6.81872C47.9671 5.3048 47.4752 3.87496 46.3785 2.68216L46.3786 2.68257ZM42.3963 25.171C43.993 27.5086 44.9367 30.2379 45.1196 33.0452C45.1317 33.5031 45.1216 33.9589 45.0873 34.4128C44.7498 33.2422 44.1315 32.1516 43.2739 31.2439C41.8682 29.9065 40.0266 29.2054 38.1529 29.2054C37.004 29.2054 35.8455 29.4687 34.767 30.0106C32.4273 31.4526 29.3589 30.7177 27.921 28.3821C27.4348 27.589 27.178 26.6792 27.182 25.7775C27.3084 23.6426 28.7645 21.771 30.7948 21.1306C33.3614 20.3795 36.0866 20.6545 38.5527 21.9438C40.075 22.6909 41.4063 23.8114 42.3964 25.171L42.3963 25.171ZM46.8005 6.70104C46.5978 8.37599 45.4288 9.79378 43.8423 10.3058C43.1074 10.5085 42.3422 10.4826 41.5229 10.4504C40.7497 10.4201 39.9525 10.3922 39.1591 10.5667C37.7575 10.8578 36.5683 11.7494 35.8956 13.0206C35.0964 14.5648 35.2491 16.5753 36.3232 18.9129C33.5237 16.4748 30.626 12.8361 31.3488 8.57879C31.5536 7.46224 31.9694 6.41197 32.5901 5.44612C34.1544 2.86549 36.8878 1.21472 39.8799 1.02615C39.938 1.02413 39.9962 1.02413 40.0547 1.02413C42.087 1.02413 44.3604 1.9719 45.6376 3.36378C46.5473 4.35019 46.939 5.47474 46.8005 6.70155V6.70104Z" fill="#F1B583"/>
</svg>
