<svg width="47" height="38" viewBox="0 0 47 38" fill="none" xmlns="http://www.w3.org/2000/svg">
<path d="M45.5924 13.5137H26.5433C28.4753 12.3205 29.7701 10.1895 29.7701 7.75623C29.7701 4.0239 26.7339 0.987305 23.0012 0.987305C20.1745 0.987305 17.7496 2.7309 16.7382 5.19732C15.7267 2.73054 13.3018 0.987305 10.4751 0.987305C6.74279 0.987305 3.70619 4.02354 3.70619 7.75623C3.70619 10.1895 5.001 12.3205 6.933 13.5137H1.23444C0.955378 13.5137 0.728516 13.7402 0.728516 14.0196V24.0965C0.728516 24.3755 0.955017 24.6024 1.23444 24.6024H3.31286V37.1025C3.31286 37.3815 3.53936 37.6084 3.81878 37.6084L43.0089 37.608C43.288 37.608 43.5148 37.3815 43.5148 37.1021V24.602H45.5933C45.8723 24.602 46.0992 24.3755 46.0992 24.0961V14.0193C46.0992 13.7402 45.8727 13.5133 45.5933 13.5133L45.5924 13.5137ZM21.5722 14.5252V23.5913H11.9036V14.5252H21.5722ZM20.9481 13.5137H17.2436V9.80917C17.2436 7.7668 18.9056 6.10466 20.9481 6.10466C22.9905 6.10466 24.6526 7.76671 24.6526 9.80917C24.6526 11.8516 22.9905 13.5137 20.9481 13.5137ZM16.2321 13.5137H12.5276C10.4849 13.5137 8.82308 11.8516 8.82308 9.80917C8.82308 7.76671 10.4851 6.10466 12.5276 6.10466C14.5701 6.10466 16.2321 7.76671 16.2321 9.80917V13.5137ZM23.001 1.99896C26.1753 1.99896 28.7585 4.58153 28.7585 7.75641C28.7585 10.6 26.6843 12.9625 23.9701 13.4257C25.0046 12.5599 25.6647 11.2609 25.6647 9.80944C25.6647 7.20926 23.5489 5.09346 20.9487 5.09346C19.4973 5.09346 18.1982 5.75356 17.3324 6.78801C17.7953 4.07385 20.1577 1.99969 23.0017 1.99969L23.001 1.99896ZM4.71783 7.75677C4.71783 4.58253 7.3004 1.99932 10.4753 1.99932C13.3189 1.99932 15.6817 4.07421 16.1446 6.78765C15.2788 5.75323 13.9794 5.0931 12.5283 5.0931C9.92741 5.0931 7.81233 7.2089 7.81233 9.80908C7.81233 11.2605 8.47243 12.5596 9.50688 13.4253C6.79344 12.9625 4.71856 10.6001 4.71856 7.75605L4.71783 7.75677ZM1.74012 14.5257H10.8921V23.5919L1.74012 23.5915V14.5253V14.5257ZM4.32404 24.6025H10.8923V36.5968H4.32368V24.6025H4.32404ZM11.9038 36.5968V24.6025H21.5724V36.5968H11.9038ZM42.5028 36.5968H22.5839V24.6025H42.5028V36.5968ZM45.0867 23.591H22.5838V14.5248H45.0858V23.591H45.0867Z" fill="#FFC18E"/>
<path d="M38.7809 16.5496H41.9191C42.5493 16.5496 43.0622 17.0625 43.0622 17.6926C43.0622 17.9717 43.2887 18.1986 43.5681 18.1986C43.8472 18.1986 44.0741 17.9721 44.0741 17.6926C44.0741 16.5044 43.1074 15.5381 41.9195 15.5381H38.7813C38.5022 15.5381 38.2754 15.7646 38.2754 16.044C38.2754 16.3231 38.5019 16.5499 38.7813 16.5499L38.7809 16.5496Z" fill="#FFC18E"/>
<path d="M34.8751 16.548H37.1299C37.4089 16.548 37.6358 16.3215 37.6358 16.0421C37.6358 15.763 37.4093 15.5361 37.1299 15.5361H34.8751C34.596 15.5361 34.3691 15.7626 34.3691 16.0421C34.3691 16.3211 34.5956 16.548 34.8751 16.548Z" fill="#FFC18E"/>
</svg>
