<svg width="32" height="57" viewBox="0 0 32 57" fill="none" xmlns="http://www.w3.org/2000/svg">
<path d="M5.85656 24.4748L7.31918 24.7676L6.02893 24.0498L6.02913 24.0498C5.807 23.9268 5.62982 23.7362 5.52293 23.5058C5.41607 23.2754 5.38536 23.0172 5.43475 22.7682L5.71694 21.3175L5.00202 22.6088C4.87812 22.8304 4.68726 23.007 4.45649 23.1131C4.22572 23.2192 3.96723 23.2493 3.71837 23.1989L2.25952 22.9043L3.55719 23.628C3.77963 23.7514 3.95707 23.9425 4.0635 24.1734C4.17015 24.4044 4.20064 24.6632 4.15025 24.9125L3.86192 26.3545L4.57683 25.0632C4.70057 24.8427 4.89114 24.6668 5.1211 24.5611C5.35088 24.4554 5.60851 24.4251 5.85652 24.4748L5.85656 24.4748Z" fill="#FFC18E"/>
<path d="M13.9445 11.0688C13.9058 11.3197 13.7882 11.5518 13.6089 11.7318C13.4296 11.9115 13.1979 12.0297 12.947 12.0692L11.4883 12.306L12.9471 12.5306L12.9469 12.5306C13.1941 12.5686 13.4229 12.6829 13.6019 12.8574C13.7808 13.032 13.9005 13.2581 13.9444 13.5041L14.1722 14.9629L14.3968 13.5041C14.4358 13.2527 14.5537 13.0203 14.7336 12.8405C14.9135 12.6606 15.1458 12.5427 15.3972 12.5036L16.856 12.306L15.3972 12.0814C15.1458 12.0423 14.9135 11.9244 14.7336 11.7445C14.5537 11.5646 14.4358 11.3323 14.3968 11.0809L14.1722 9.61018L13.9445 11.0688Z" fill="#FFC18E"/>
<path d="M24.6834 21.3923L23.2246 21.6169L24.6834 21.8415C24.9344 21.8804 25.1665 21.9978 25.3462 22.1771C25.5261 22.3564 25.6444 22.5883 25.6839 22.839L25.9085 24.2979L26.1331 22.839L26.1333 22.839C26.1722 22.5877 26.2902 22.3551 26.4699 22.1754C26.6498 21.9955 26.8824 21.8775 27.1338 21.8386L28.5926 21.614L27.1338 21.3894L27.1338 21.3892C26.8824 21.3503 26.6498 21.2322 26.4699 21.0523C26.2902 20.8726 26.1722 20.6401 26.1333 20.3887L25.9085 18.9449L25.6839 20.4038C25.6427 20.6528 25.5236 20.8827 25.3439 21.0603C25.1642 21.2377 24.9331 21.354 24.6834 21.3923L24.6834 21.3923Z" fill="#FFC18E"/>
<path d="M1.71157 45.5994H1.61157V45.6994V51.6284C1.61157 53.3826 3.03826 54.8093 4.79238 54.8093H26.782C28.5361 54.8093 29.9628 53.3826 29.9628 51.6284L29.9632 45.6995L29.9632 45.5994H29.8632H1.71157ZM29.8628 44.1997H29.9628V44.0997V7.74561V7.64561H29.8628H1.71111H1.61111V7.74561V44.0997V44.1997H1.71111H29.8628ZM29.8628 6.24537H29.9628L29.9628 6.14534L29.9623 4.70046C29.9623 4.70045 29.9623 4.70044 29.9623 4.70043C29.9623 2.94633 28.5356 1.51966 26.7815 1.51966H4.79192C3.03781 1.51966 1.61111 2.94635 1.61111 4.70046V6.14537V6.24537H1.71111H29.8628ZM4.79238 0.119531H26.782C29.3075 0.119531 31.363 2.17463 31.363 4.70058V51.6288C31.363 54.1552 29.3075 56.2098 26.782 56.2098H4.79238C2.26597 56.2098 0.211328 54.1543 0.211328 51.6288V4.70058C0.211328 2.17417 2.26686 0.119531 4.79238 0.119531Z" fill="#FFC18E" stroke="#1D1D1D" stroke-width="0.2"/>
<path d="M18.9605 50.2427C18.9605 51.9925 17.5365 53.4165 15.7867 53.4165C14.0368 53.4165 12.6129 51.9925 12.6129 50.2427C12.6129 48.4927 14.0369 47.068 15.7867 47.068C17.5364 47.068 18.9605 48.4927 18.9605 50.2427ZM17.8985 50.2427C17.8985 49.0775 16.9521 48.1299 15.7867 48.1299C14.6211 48.1299 13.6749 49.0785 13.6749 50.2427C13.6749 51.407 14.6213 52.3545 15.7867 52.3545C16.952 52.3545 17.8985 51.408 17.8985 50.2427Z" fill="#FFC18E" stroke="#1D1D1D" stroke-width="0.538248"/>
<path d="M11.7845 3.33651H16.5611C16.8544 3.33651 17.0921 3.57445 17.0921 3.8675C17.0921 4.16046 16.8541 4.3985 16.5611 4.3985H11.7845C11.4915 4.3985 11.2535 4.16046 11.2535 3.8675C11.2535 3.57455 11.4915 3.33651 11.7845 3.33651Z" fill="#FFC18E" stroke="#1D1D1D" stroke-width="0.538248"/>
<path d="M19.7371 3.86705C19.7371 4.05695 19.6664 4.19541 19.5635 4.28694C19.4596 4.37935 19.3195 4.42671 19.1777 4.42671C19.0359 4.42671 18.8958 4.37935 18.7919 4.28694C18.6889 4.19541 18.6183 4.05695 18.6183 3.86705C18.6183 3.67728 18.6889 3.5389 18.7918 3.44742C18.8958 3.35507 19.0358 3.30773 19.1777 3.30773C19.3195 3.30773 19.4596 3.35507 19.5635 3.44742C19.6665 3.5389 19.7371 3.67728 19.7371 3.86705Z" fill="#FFC18E" stroke="#1D1D1D" stroke-width="0.10765"/>
<path d="M23.8356 45.0768H7.91483C7.86552 45.0768 7.81685 45.0652 7.77292 45.0428C4.94821 43.6536 3.14206 41.4893 3.18837 39.532C3.19461 39.0177 3.35354 38.5171 3.64491 38.0932C3.93628 37.6696 4.3467 37.3419 4.82456 37.1517C5.32977 36.9073 5.8987 36.8263 6.45214 36.9204C7.00536 37.0146 7.51575 37.2788 7.9118 37.6765C8.37674 37.2125 8.99437 36.9327 9.64986 36.8892C9.85767 35.0986 9.92486 33.2942 9.85056 31.4928C9.11172 30.9715 8.64786 30.1445 8.58777 29.2422C8.47364 27.9456 9.00447 26.7724 9.85359 26.3805C9.8073 25.4142 9.85359 22.8025 11.5084 20.9407C11.8355 20.5718 12.2127 20.2507 12.629 19.9867C12.6551 19.4477 12.8388 18.9283 13.1571 18.4925C13.2059 18.4306 13.2766 18.3897 13.3545 18.3783C14.4558 18.1724 15.4736 17.6511 16.2844 16.878C16.3429 16.8181 16.4231 16.7847 16.5066 16.7852C16.5891 16.7856 16.6681 16.819 16.7258 16.878C17.5418 17.6509 18.5634 18.1718 19.6679 18.3783C19.7461 18.3897 19.8167 18.4306 19.8656 18.4925C20.1858 18.9275 20.3704 19.4473 20.3967 19.9867C20.8134 20.2514 21.1915 20.5725 21.5204 20.9407C23.1844 22.8117 23.2214 25.4419 23.1751 26.3805C24.0333 26.7726 24.5551 27.9241 24.4377 29.2422C24.3791 30.1441 23.9161 30.9712 23.1781 31.4928C23.138 32.4005 22.9526 38.4115 24.518 40.6062C24.5951 40.6958 24.6692 40.7822 24.7342 40.8717L24.7713 40.9243C25.0129 41.2488 25.1477 41.6403 25.1572 42.045C25.1574 42.0818 25.1511 42.1184 25.1386 42.1528L24.1261 44.8882H24.1259C24.0768 45.0043 23.962 45.079 23.8358 45.0766L23.8356 45.0768ZM16.5189 44.4594H23.6195L24.5457 41.9896H24.5455C24.5263 41.7419 24.4387 41.5046 24.2925 41.3041C24.1997 41.2011 24.1131 41.093 24.033 40.98C22.9896 39.8838 20.6989 38.9269 19.3313 38.4701C19.3593 38.5752 19.3944 38.6783 19.4362 38.7787C19.4693 38.8536 19.4715 38.9387 19.442 39.0152C19.4125 39.0916 19.3537 39.1532 19.2787 39.1861C19.2034 39.2193 19.1181 39.2208 19.0416 39.1907C18.965 39.1605 18.9038 39.1013 18.8713 39.0257C18.5009 38.1828 18.5625 37.1332 18.6768 36.4418H18.6766C18.0304 36.8582 17.284 37.0928 16.5156 37.1209C15.7453 37.0893 14.9981 36.8479 14.3546 36.4232C14.4595 37.1332 14.5213 38.1923 14.1539 39.0257C14.0861 39.1812 13.9056 39.2529 13.7495 39.1861C13.6741 39.1536 13.6147 39.0925 13.5845 39.0158C13.5544 38.9394 13.5559 38.8541 13.589 38.7787C13.6323 38.6788 13.6674 38.5756 13.6939 38.4701C13.4006 38.569 12.9962 38.7141 12.5424 38.8961C12.5941 39.0981 12.6232 39.305 12.6288 39.5135C12.6628 41.2145 11.3106 43.0729 9.10008 44.4532L16.5189 44.4594ZM6.02224 37.501L6.02203 37.5008C5.69254 37.5055 5.36759 37.5792 5.06802 37.717C4.69784 37.8593 4.37868 38.1096 4.1526 38.4356C3.92626 38.7614 3.80309 39.1478 3.79921 39.5444C3.77444 40.8318 4.83652 42.8724 7.90827 44.4222C10.977 42.8786 12.0421 40.8317 12.0143 39.5444C12.0098 39.325 11.9723 39.1075 11.9032 38.8992C11.89 38.882 11.8788 38.8633 11.8694 38.8437C11.8601 38.8187 11.8541 38.7928 11.8508 38.7666C11.6314 38.2919 11.2395 37.919 10.7547 37.723C10.3184 37.5094 9.82137 37.454 9.34891 37.5669C8.87622 37.6795 8.45758 37.953 8.16452 38.3404C8.10637 38.4203 8.01334 38.4672 7.91449 38.467C7.81522 38.4666 7.72219 38.4183 7.66447 38.3374C7.27297 37.8261 6.67192 37.5188 6.02824 37.5007L6.02224 37.501ZM19.2108 37.785V37.7848C20.6672 38.2254 22.0623 38.8478 23.3629 39.6373C22.5696 37.3867 22.5078 34.0185 22.5326 32.3541C22.373 32.4228 22.1996 32.4534 22.0263 32.4437C21.4517 33.7961 20.5576 34.9889 19.4205 35.9199C19.2638 36.5285 19.1953 37.1565 19.2168 37.7846L19.2108 37.785ZM10.2578 36.9269L10.2576 36.9267C10.5098 36.9715 10.7555 37.0473 10.9893 37.1519C11.5538 37.3875 12.0224 37.8061 12.32 38.3405C12.9807 38.0749 13.5333 37.8897 13.8111 37.8001V37.8004C13.8393 37.167 13.7779 36.533 13.6289 35.9171C12.4906 34.9907 11.5908 33.805 11.0046 32.4593C10.8289 32.4709 10.653 32.4392 10.4923 32.3667C10.5229 33.8901 10.4486 35.4134 10.2699 36.9267L10.2578 36.9269ZM11.5913 32.2278C12.7057 34.7902 14.9874 36.4943 16.531 36.4943C18.0746 36.4943 20.3222 34.8703 21.4707 32.2278C21.1644 31.9993 21.0012 31.6263 21.041 31.2464C21.0811 30.8663 21.3182 30.5354 21.6651 30.3755L21.6373 30.3478V30.3476C21.6121 30.3155 21.5934 30.2789 21.5818 30.2397C21.0262 28.2053 19.8837 27.915 18.4327 27.5446C17.0898 27.2019 15.5925 26.8191 14.3885 24.9666C13.9563 27.5661 11.9497 28.622 11.048 28.7578V28.7576C11.1524 29.1838 11.2909 29.6009 11.4617 30.0049C11.5259 30.1296 11.4979 30.2816 11.3939 30.3755C11.7393 30.5368 11.9751 30.8674 12.0149 31.2466C12.0546 31.6259 11.8928 31.9982 11.5883 32.2278H11.5913ZM21.9583 31.8048H21.9586C22.0031 31.8199 22.0503 31.8272 22.0975 31.8264C22.3328 31.8281 22.5322 31.6528 22.5605 31.4189C22.5467 31.3653 22.5467 31.3089 22.5605 31.2553C22.5256 31.0927 22.4071 30.9609 22.2493 30.9085C22.0916 30.8562 21.9179 30.8913 21.7927 31.0007C21.6676 31.1103 21.6097 31.2779 21.6407 31.4411C21.6715 31.6046 21.7865 31.7394 21.9431 31.7956H21.9678L21.9583 31.8048ZM10.4678 31.4189C10.5074 31.6795 10.7503 31.8591 11.0111 31.8203L11.0729 31.7863C11.1026 31.7747 11.1338 31.7676 11.1655 31.7648C11.3042 31.6866 11.3938 31.5438 11.4037 31.3849C11.4136 31.2262 11.3425 31.0731 11.2146 30.9785C11.0867 30.8838 10.9196 30.8605 10.7705 30.9163C10.6215 30.9723 10.511 31.1 10.477 31.2553C10.4878 31.3097 10.4848 31.3662 10.4678 31.4189L10.4678 31.4189ZM9.9492 27.0351C9.43667 27.3962 9.12485 28.2698 9.20821 29.1961C9.25494 29.8199 9.5336 30.4037 9.98928 30.8323C10.1766 30.5048 10.5197 30.2969 10.897 30.2827C10.5356 29.5294 10.1127 27.7358 9.95526 27.0351L9.9492 27.0351ZM22.1344 30.2735C22.5108 30.287 22.8535 30.495 23.0389 30.823C23.4954 30.3947 23.7751 29.8111 23.8232 29.1868C23.9065 28.2606 23.5917 27.3992 23.0792 27.0258C22.9185 27.7636 22.5079 29.5356 22.1344 30.2734V30.2735ZM14.1352 23.6111C14.254 23.6115 14.3619 23.68 14.413 23.787C15.5552 26.1703 17.0835 26.5654 18.5591 26.9361C19.8216 27.2449 21.1215 27.5905 21.8625 29.2545C22.1991 28.1804 22.5355 26.6428 22.5387 26.609C22.5418 26.575 22.8876 23.4011 21.0567 21.3605C20.0381 20.1968 18.4945 19.6132 16.5187 19.6132C14.5428 19.6132 13.0053 20.1998 11.9772 21.3605C10.1588 23.4107 10.4984 26.609 10.5016 26.652C10.5016 26.652 10.6528 27.356 10.8567 28.1463C11.326 28.1215 13.8266 27.2419 13.8266 23.9199C13.8229 23.7728 13.9237 23.6436 14.0673 23.6111C14.0897 23.6078 14.1128 23.6078 14.1352 23.6111L14.1352 23.6111ZM16.5186 18.9957C17.6176 18.9692 18.7096 19.1798 19.72 19.6131C19.6694 19.3814 19.5774 19.1607 19.4482 18.9617C18.3616 18.7446 17.3511 18.2452 16.5186 17.5139C15.6862 18.247 14.6758 18.7483 13.5887 18.9679C13.4595 19.1669 13.3676 19.3877 13.317 19.6193C14.3269 19.1839 15.419 18.9711 16.5185 18.9957H16.5186Z" fill="#FFC18E"/>
</svg>
