<svg width="55" height="61" viewBox="0 0 55 61" fill="none" xmlns="http://www.w3.org/2000/svg">
<path d="M43.56 12.9794C43.2764 12.6998 42.9018 12.5463 42.5032 12.548L39.593 12.5635C39.3817 12.5655 39.2122 12.7368 39.2141 12.9471C39.2147 13.1575 39.3874 13.3279 39.5976 13.326L42.5078 13.3106C42.7027 13.3095 42.8858 13.3847 43.0238 13.5214C43.1619 13.6581 43.2395 13.8411 43.2403 14.0348L43.4524 52.9503C43.4534 53.1452 43.3783 53.3283 43.2415 53.4663C43.1048 53.6044 42.9218 53.682 42.7281 53.6828L13.0691 53.8446C12.6675 53.8468 12.3389 53.522 12.3366 53.1203L12.1246 14.2048C12.1235 14.0099 12.1987 13.8269 12.3354 13.6888C12.4721 13.5508 12.6551 13.4732 12.8489 13.4723L36.1904 13.3448C36.4017 13.3428 36.5712 13.1715 36.5694 12.9613C36.5687 12.7509 36.396 12.5805 36.1858 12.5823L27.9634 12.6269L27.9187 4.3424C27.9171 3.97466 27.5157 3.74772 27.1997 3.93582L12.2493 12.8371C12.0813 12.912 11.9251 13.0168 11.7925 13.1517C11.5129 13.4353 11.3594 13.8099 11.3611 14.2085L11.5733 53.125C11.5777 53.9473 12.2508 54.6127 13.0732 54.6083L42.7321 54.4462C42.8206 54.4455 42.9078 54.4375 42.9913 54.4224C43.6896 54.2953 44.2193 53.6805 44.2155 52.9463L44.0034 14.0308C44.0017 13.6323 43.8444 13.2588 43.5608 12.9792L43.56 12.9794Z" fill="#FFC18E"/>
<path d="M6.21798 19.654C6.12574 19.4646 5.89763 19.3855 5.70824 19.4777L3.15622 20.7201C2.96682 20.8123 2.88763 21.0404 2.97988 21.2298C3.05609 21.3877 3.22712 21.4686 3.39145 21.4387C3.42478 21.4326 3.4581 21.4222 3.49084 21.4063L6.04286 20.164C6.23086 20.0728 6.31005 19.8447 6.21799 19.654L6.21798 19.654Z" fill="#FFC18E"/>
<path d="M4.67956 10.8249L7.2203 12.0911C7.29691 12.1294 7.3799 12.1396 7.45805 12.1254C7.57297 12.1045 7.67624 12.0327 7.73219 11.9204C7.82643 11.7315 7.74923 11.503 7.56033 11.4087L5.0196 10.1425C4.83071 10.0482 4.60217 10.1254 4.50792 10.3143C4.415 10.5018 4.49074 10.731 4.67956 10.8249L4.67956 10.8249Z" fill="#FFC18E"/>
<path d="M51.5785 35.7724C51.4711 35.5913 51.2383 35.5296 51.0564 35.6371L48.6089 37.0753C48.4278 37.1827 48.3663 37.4163 48.4736 37.5974C48.5573 37.7397 48.7181 37.8078 48.8713 37.7799C48.9142 37.7721 48.9569 37.7564 48.9959 37.7339L51.4434 36.2956C51.6251 36.1874 51.6855 35.9536 51.5785 35.7724L51.5785 35.7724Z" fill="#FFC18E"/>
<path d="M50.6963 46.2798L48.065 45.2159C47.8703 45.1374 47.6467 45.2311 47.5684 45.427C47.49 45.6229 47.5835 45.8453 47.7794 45.9236L50.4107 46.9875C50.48 47.016 50.553 47.0213 50.6219 47.0088C50.7464 46.9862 50.8562 46.9021 50.9077 46.7764C50.9859 46.5817 50.8922 46.3581 50.6963 46.2798L50.6963 46.2798Z" fill="#FFC18E"/>
<path d="M25.211 20.7944C22.7589 20.8073 20.7759 22.8123 20.7899 25.2642C20.8038 27.716 22.8078 29.6992 25.2596 29.6853C25.5241 29.6839 25.7824 29.659 26.0333 29.6134C26.7197 29.4885 27.3507 29.2051 27.8884 28.8037C28.6516 29.3618 29.5692 29.6613 30.5323 29.6567C30.7968 29.6553 31.0551 29.6304 31.306 29.5848C33.3878 29.206 34.966 27.3743 34.9534 25.187C34.942 23.0363 33.3965 21.2454 31.3605 20.8478L31.915 20.2482C32.0298 20.1244 32.0495 19.9388 31.963 19.7939L31.641 19.2553C31.5724 19.1392 31.4462 19.068 31.3111 19.0692L29.6352 19.0781C29.5001 19.0794 29.3757 19.1507 29.3072 19.2676L28.9916 19.8102C28.9062 19.9563 28.9274 20.1408 29.044 20.2637L29.605 20.8565C28.9682 20.9866 28.3701 21.2553 27.8485 21.647C27.1093 21.106 26.196 20.7889 25.2109 20.7946L25.211 20.7944ZM25.2562 28.9225C23.2262 28.9341 21.5642 27.2907 21.5537 25.2604C21.5442 23.4482 22.8505 21.9306 24.5751 21.6169C24.7831 21.579 24.9978 21.5589 25.2157 21.5581C25.9729 21.5544 26.6789 21.7806 27.2675 22.1709C26.4841 23.0048 26.0564 24.0878 26.0624 25.2367C26.0687 26.3848 26.5087 27.4634 27.3004 28.289C26.7164 28.6834 26.0131 28.9178 25.2562 28.9225L25.2562 28.9225ZM27.8844 27.7941C27.2063 27.1062 26.8307 26.1986 26.8252 25.2309C26.8197 24.2635 27.1856 23.3513 27.8558 22.6566C28.5067 23.317 28.9119 24.222 28.9175 25.2202C28.9238 26.2186 28.5284 27.1272 27.8844 27.7941L27.8844 27.7941ZM29.8585 19.8399L31.0984 19.8335L31.162 19.9395L30.4833 20.6724L29.796 19.9466L29.8585 19.8399ZM29.8411 21.5883C30.0525 21.5498 30.2692 21.5294 30.4883 21.5283C32.5183 21.5167 34.1802 23.1601 34.1907 25.1903C34.2012 27.2206 32.5575 28.8813 30.5287 28.8928C29.7871 28.8971 29.0777 28.6827 28.4738 28.2805C29.2278 27.4785 29.6882 26.3986 29.6809 25.2143C29.6749 24.031 29.2024 22.9566 28.4411 22.1631C28.8631 21.877 29.3377 21.6798 29.8411 21.5883L29.8411 21.5883Z" fill="#FFC18E"/>
<path d="M31.2959 41.3394L25.5806 38.4969C25.1399 38.2738 24.6149 38.2957 24.1943 38.5542C23.7738 38.8128 23.5172 39.2716 23.5176 39.7652V45.4655C23.5172 45.9594 23.7738 46.4178 24.1943 46.6764C24.6149 46.9349 25.1399 46.9568 25.5806 46.7337L31.2806 43.8758V43.8762C31.6005 43.7192 31.8495 43.4481 31.9792 43.1162C32.1084 42.7843 32.1084 42.4159 31.9792 42.084C31.8495 41.7521 31.6005 41.4809 31.2806 41.324L31.2959 41.3394Z" fill="#FFC18E"/>
</svg>
