<svg width="44" height="44" viewBox="0 0 44 44" fill="none" xmlns="http://www.w3.org/2000/svg">
<mask id="path-1-inside-1_1417_752" fill="white">
<path d="M41.0996 13.0328H13.2373L40.8246 9.27241C41.4403 9.18814 41.9873 8.86767 42.3631 8.36969C42.7381 7.8724 42.8959 7.25877 42.8079 6.64399L42.1458 2.0289C41.9673 0.781217 40.7991 -0.133261 39.5112 0.0408116L2.11877 5.13869C1.50234 5.22226 0.95605 5.54239 0.580322 6.04C0.205284 6.53832 0.0464255 7.15162 0.135531 7.76737L0.797546 12.3832C0.880427 12.9626 1.1788 13.4685 1.60114 13.8291C1.23819 14.2407 1.00924 14.7742 1.00924 15.3655V41.0078C1.01027 42.2911 2.05703 43.3378 3.34237 43.3378H41.0991C42.3851 43.3378 43.4308 42.291 43.4308 41.0064V15.3641C43.4308 14.0777 42.3851 13.0327 41.0994 13.0327L41.0996 13.0328ZM8.29098 8.65842L4.84489 6.33536L10.6984 5.53694L14.3959 8.30548L11.2475 11.7361L6.07224 12.4416L8.43296 9.82329C8.58215 9.65615 8.65501 9.43099 8.62635 9.20894C8.60114 8.98412 8.47716 8.78348 8.29102 8.65847L8.29098 8.65842ZM18.4542 4.47944L22.0899 7.20245L18.9363 10.6378C18.9207 10.6541 18.9163 10.6751 18.9031 10.6921L13.6592 11.4076L16.1228 8.725C16.2706 8.56269 16.3442 8.34513 16.3238 8.12688C16.3031 7.90793 16.1916 7.70901 16.0158 7.57675L12.8929 5.23813L18.4542 4.47944ZM26.2099 3.42201L29.7845 6.09834L26.6298 9.53374C26.598 9.56861 26.5849 9.61109 26.5611 9.64736L21.2954 10.3653L23.8164 7.61985C23.9642 7.45754 24.0378 7.24171 24.0174 7.02172C23.9973 6.80278 23.8851 6.60317 23.7093 6.4716L20.6483 4.17886L26.2099 3.42201ZM33.9655 2.36387L37.4776 4.99397L34.3247 8.42936C34.276 8.48116 34.2498 8.54298 34.2194 8.60272L28.9322 9.32378L31.5112 6.51581C31.659 6.35488 31.7315 6.13662 31.7115 5.91769C31.6915 5.69943 31.5792 5.49982 31.4035 5.3686L28.4045 3.12219L33.9655 2.36387ZM39.7209 1.57926C39.7558 1.57546 39.7914 1.57305 39.8263 1.57305C40.2162 1.57305 40.5518 1.86313 40.6085 2.24922L41.2698 6.86431C41.2991 7.06702 41.2467 7.26904 41.122 7.43446C40.9973 7.5985 40.8188 7.7052 40.6154 7.73214L36.5697 8.28365L39.2043 5.41282C39.3521 5.25189 39.4264 5.03468 39.4053 4.81573C39.3846 4.59747 39.2737 4.39718 39.0966 4.2656L36.1594 2.06507L39.7209 1.57926ZM1.82103 6.97658C1.9457 6.81185 2.12596 6.70583 2.32833 6.67786L2.54555 6.64919C2.55867 6.65852 2.56558 6.67406 2.57974 6.68338L6.67818 9.44574L3.68517 12.7658L3.22242 12.8294C3.18616 12.8349 3.15197 12.837 3.1164 12.837C2.72582 12.837 2.39085 12.5469 2.33594 12.1608L1.67427 7.54573C1.64491 7.34336 1.6981 7.14065 1.82104 6.97661L1.82103 6.97658ZM41.8772 41.006C41.8772 41.4346 41.5277 41.7827 41.0998 41.7827H3.34313C2.91456 41.7827 2.56577 41.4346 2.56577 41.006V15.3637C2.56577 14.9351 2.91456 14.5864 3.34313 14.5864H41.0998C41.5277 14.5864 41.8772 14.9351 41.8772 15.3637V41.006ZM21.6692 17.695C15.6686 17.695 10.7881 22.5753 10.7881 28.5734C10.7881 34.5715 15.6691 39.4519 21.6692 39.4519C27.6687 39.4519 32.5503 34.5708 32.5503 28.5734C32.5503 22.5752 27.6693 17.695 21.6692 17.695ZM21.6692 37.8977C16.5264 37.8977 12.3423 33.7143 12.3423 28.5734C12.3426 23.4324 16.5261 19.2492 21.6692 19.2492C26.8109 19.2492 30.9961 23.4326 30.9961 28.5734C30.9961 33.7143 26.8113 37.8977 21.6692 37.8977ZM21.0265 22.3929C20.6505 22.0742 20.2661 21.9132 19.8825 21.9132C19.2242 21.9132 18.5612 22.4147 18.5612 23.5339L18.5605 33.6123C18.5605 34.7326 19.2243 35.2329 19.8825 35.2329C20.2661 35.2329 20.6505 35.072 21.0259 34.7533L26.4277 30.1699C26.9126 29.7593 27.1906 29.176 27.1906 28.5724C27.1906 27.9684 26.9129 27.3858 26.4277 26.9749L21.0265 22.3929ZM25.422 28.9858L20.1145 33.4887L20.1152 23.6578L25.4216 28.16C25.5594 28.2774 25.6351 28.4239 25.6351 28.5731C25.6354 28.7226 25.5594 28.8687 25.422 28.9854L25.422 28.9858Z"/>
</mask>
<path d="M41.0996 13.0328H13.2373L40.8246 9.27241C41.4403 9.18814 41.9873 8.86767 42.3631 8.36969C42.7381 7.8724 42.8959 7.25877 42.8079 6.64399L42.1458 2.0289C41.9673 0.781217 40.7991 -0.133261 39.5112 0.0408116L2.11877 5.13869C1.50234 5.22226 0.95605 5.54239 0.580322 6.04C0.205284 6.53832 0.0464255 7.15162 0.135531 7.76737L0.797546 12.3832C0.880427 12.9626 1.1788 13.4685 1.60114 13.8291C1.23819 14.2407 1.00924 14.7742 1.00924 15.3655V41.0078C1.01027 42.2911 2.05703 43.3378 3.34237 43.3378H41.0991C42.3851 43.3378 43.4308 42.291 43.4308 41.0064V15.3641C43.4308 14.0777 42.3851 13.0327 41.0994 13.0327L41.0996 13.0328ZM8.29098 8.65842L4.84489 6.33536L10.6984 5.53694L14.3959 8.30548L11.2475 11.7361L6.07224 12.4416L8.43296 9.82329C8.58215 9.65615 8.65501 9.43099 8.62635 9.20894C8.60114 8.98412 8.47716 8.78348 8.29102 8.65847L8.29098 8.65842ZM18.4542 4.47944L22.0899 7.20245L18.9363 10.6378C18.9207 10.6541 18.9163 10.6751 18.9031 10.6921L13.6592 11.4076L16.1228 8.725C16.2706 8.56269 16.3442 8.34513 16.3238 8.12688C16.3031 7.90793 16.1916 7.70901 16.0158 7.57675L12.8929 5.23813L18.4542 4.47944ZM26.2099 3.42201L29.7845 6.09834L26.6298 9.53374C26.598 9.56861 26.5849 9.61109 26.5611 9.64736L21.2954 10.3653L23.8164 7.61985C23.9642 7.45754 24.0378 7.24171 24.0174 7.02172C23.9973 6.80278 23.8851 6.60317 23.7093 6.4716L20.6483 4.17886L26.2099 3.42201ZM33.9655 2.36387L37.4776 4.99397L34.3247 8.42936C34.276 8.48116 34.2498 8.54298 34.2194 8.60272L28.9322 9.32378L31.5112 6.51581C31.659 6.35488 31.7315 6.13662 31.7115 5.91769C31.6915 5.69943 31.5792 5.49982 31.4035 5.3686L28.4045 3.12219L33.9655 2.36387ZM39.7209 1.57926C39.7558 1.57546 39.7914 1.57305 39.8263 1.57305C40.2162 1.57305 40.5518 1.86313 40.6085 2.24922L41.2698 6.86431C41.2991 7.06702 41.2467 7.26904 41.122 7.43446C40.9973 7.5985 40.8188 7.7052 40.6154 7.73214L36.5697 8.28365L39.2043 5.41282C39.3521 5.25189 39.4264 5.03468 39.4053 4.81573C39.3846 4.59747 39.2737 4.39718 39.0966 4.2656L36.1594 2.06507L39.7209 1.57926ZM1.82103 6.97658C1.9457 6.81185 2.12596 6.70583 2.32833 6.67786L2.54555 6.64919C2.55867 6.65852 2.56558 6.67406 2.57974 6.68338L6.67818 9.44574L3.68517 12.7658L3.22242 12.8294C3.18616 12.8349 3.15197 12.837 3.1164 12.837C2.72582 12.837 2.39085 12.5469 2.33594 12.1608L1.67427 7.54573C1.64491 7.34336 1.6981 7.14065 1.82104 6.97661L1.82103 6.97658ZM41.8772 41.006C41.8772 41.4346 41.5277 41.7827 41.0998 41.7827H3.34313C2.91456 41.7827 2.56577 41.4346 2.56577 41.006V15.3637C2.56577 14.9351 2.91456 14.5864 3.34313 14.5864H41.0998C41.5277 14.5864 41.8772 14.9351 41.8772 15.3637V41.006ZM21.6692 17.695C15.6686 17.695 10.7881 22.5753 10.7881 28.5734C10.7881 34.5715 15.6691 39.4519 21.6692 39.4519C27.6687 39.4519 32.5503 34.5708 32.5503 28.5734C32.5503 22.5752 27.6693 17.695 21.6692 17.695ZM21.6692 37.8977C16.5264 37.8977 12.3423 33.7143 12.3423 28.5734C12.3426 23.4324 16.5261 19.2492 21.6692 19.2492C26.8109 19.2492 30.9961 23.4326 30.9961 28.5734C30.9961 33.7143 26.8113 37.8977 21.6692 37.8977ZM21.0265 22.3929C20.6505 22.0742 20.2661 21.9132 19.8825 21.9132C19.2242 21.9132 18.5612 22.4147 18.5612 23.5339L18.5605 33.6123C18.5605 34.7326 19.2243 35.2329 19.8825 35.2329C20.2661 35.2329 20.6505 35.072 21.0259 34.7533L26.4277 30.1699C26.9126 29.7593 27.1906 29.176 27.1906 28.5724C27.1906 27.9684 26.9129 27.3858 26.4277 26.9749L21.0265 22.3929ZM25.422 28.9858L20.1145 33.4887L20.1152 23.6578L25.4216 28.16C25.5594 28.2774 25.6351 28.4239 25.6351 28.5731C25.6354 28.7226 25.5594 28.8687 25.422 28.9854L25.422 28.9858Z" fill="#FFC18E" stroke="black" stroke-width="0.6" mask="url(#path-1-inside-1_1417_752)"/>
</svg>
