<svg width="53" height="50" viewBox="0 0 53 50" fill="none" xmlns="http://www.w3.org/2000/svg">
<path d="M9.39353 25.7389L9.39352 25.7389C8.34639 24.6918 7.7582 23.2719 7.7582 21.7913C7.7582 20.3105 8.3464 18.8906 9.39352 17.8434C10.4403 16.7967 11.8602 16.2084 13.3411 16.2084C14.822 16.2084 16.2419 16.7966 17.2887 17.8434C18.3358 18.8905 18.924 20.3104 18.924 21.7912C18.9223 23.2713 18.3333 24.6903 17.2869 25.7367C16.2401 26.7834 14.8212 27.372 13.3411 27.3742C11.8603 27.3742 10.4404 26.786 9.39353 25.7389ZM13.3412 17.6321H13.3411C12.2381 17.6321 11.1802 18.0703 10.3999 18.8501L10.3999 18.8501C9.62005 19.63 9.18189 20.688 9.18189 21.7913C9.18189 22.8943 9.6201 23.9522 10.3999 24.7321L10.3999 24.7322C11.1801 25.5124 12.2381 25.9505 13.3411 25.9505C14.4441 25.9505 15.502 25.5123 16.2823 24.7322L16.2823 24.7322C17.0622 23.9523 17.5003 22.8943 17.5003 21.7913V21.7912C17.4992 20.6883 17.0603 19.631 16.2808 18.8516C15.501 18.0718 14.4438 17.6332 13.3412 17.6321Z" fill="#FFC18E" stroke="#1D1D1D" stroke-width="0.2"/>
<path d="M15.8877 25.7389L15.8877 25.7389C14.8405 24.6918 14.2523 23.2719 14.2523 21.7913C14.2523 20.3105 14.8405 18.8906 15.8877 17.8434C16.9344 16.7967 18.3543 16.2084 19.8353 16.2084C21.3162 16.2084 22.736 16.7966 23.7829 17.8434C24.83 18.8905 25.4181 20.3104 25.4182 21.7912C25.4164 23.2713 24.8275 24.6903 23.781 25.7367C22.7343 26.7834 21.3154 27.372 19.8353 27.3742C18.3544 27.3742 16.9345 26.786 15.8877 25.7389ZM19.8354 17.6321H19.8353C18.7323 17.6321 17.6744 18.0703 16.8941 18.8501L16.8941 18.8501C16.1142 19.63 15.676 20.688 15.676 21.7913C15.676 22.8943 16.1142 23.9522 16.894 24.7321L16.8941 24.7322C17.6743 25.5124 18.7323 25.9505 19.8353 25.9505C20.9383 25.9505 21.9962 25.5123 22.7765 24.7322L22.7765 24.7322C23.5563 23.9523 23.9945 22.8943 23.9945 21.7913V21.7912C23.9934 20.6883 23.5544 19.631 22.775 18.8516C21.9952 18.0718 20.9379 17.6332 19.8354 17.6321Z" fill="#FFC18E" stroke="#1D1D1D" stroke-width="0.2"/>
<path d="M16.5939 13.5582L16.6929 13.5723C16.7196 13.385 16.8195 13.2159 16.9707 13.1025C17.122 12.989 17.3123 12.9405 17.4989 12.9678L17.4991 12.9678C17.6863 12.9948 17.855 13.0952 17.9682 13.2469L17.9683 13.2471L20.4038 16.4944C20.5652 16.7098 20.591 16.998 20.4709 17.239C20.351 17.4789 20.1069 17.6309 19.839 17.633L19.8348 17.633C19.6107 17.6337 19.3995 17.5279 19.265 17.3481L19.2649 17.3479L16.8294 14.1005L16.8292 14.1004C16.7155 13.9494 16.6665 13.7594 16.6929 13.5721L16.5939 13.5582ZM16.5939 13.5582C16.5638 13.7716 16.6196 13.9884 16.7494 14.1605M16.5939 13.5582C16.6243 13.3447 16.7382 13.1519 16.9107 13.0225C17.0832 12.8931 17.3003 12.8377 17.5134 12.8688C17.7269 12.8996 17.9193 13.0142 18.0483 13.1871L20.4839 16.4344C20.668 16.6802 20.6974 17.0089 20.5603 17.2836L16.7494 14.1605M16.7494 14.1605L19.1849 17.4079C19.3373 17.6118 19.5764 17.7323 19.8305 17.733L16.7494 14.1605Z" fill="#FFC18E" stroke="#1D1D1D" stroke-width="0.2"/>
<path d="M21.7009 13.2471L21.701 13.2469C21.8142 13.0952 21.983 12.9948 22.1701 12.9678L22.1703 12.9678C22.357 12.9405 22.5473 12.9891 22.6986 13.1025C22.8498 13.2159 22.9496 13.385 22.9763 13.5723L23.0753 13.5582L22.9763 13.5721C23.0027 13.7594 22.9537 13.9494 22.84 14.1003L22.8398 14.1005L20.4043 17.3479L20.4042 17.3481C20.2698 17.5279 20.0585 17.6337 19.8344 17.633L19.8305 17.633C19.5624 17.631 19.3182 17.479 19.1984 17.2389C19.0782 16.998 19.104 16.7098 19.2654 16.4944L21.7009 13.2471Z" fill="#FFC18E" stroke="#1D1D1D" stroke-width="0.2"/>
<path d="M22.2708 14.386H17.3997C17.0066 14.386 16.6879 14.0672 16.6879 13.6742C16.6879 13.2811 17.0066 12.9623 17.3997 12.9623H22.2708C22.6639 12.9623 22.9827 13.2811 22.9827 13.6742C22.9827 14.0672 22.6639 14.386 22.2708 14.386Z" fill="#FFC18E" stroke="#1D1D1D" stroke-width="0.2"/>
<path d="M3.61076 3.87448V3.77564V3.87448ZM3.61076 3.87448L3.61028 3.77565C3.21717 3.77755 2.89684 3.46038 2.89493 3.0673C2.89302 2.67427 3.21006 2.35399 3.60304 2.35195H3.61076C4.00386 2.35195 4.32261 2.6707 4.32261 3.0638C4.32261 3.45689 4.00386 3.77564 3.61077 3.77564L3.61076 3.87448Z" fill="#FFC18E" stroke="#1D1D1D" stroke-width="0.2"/>
<path d="M6.04631 3.87448V3.77564V3.87448ZM6.04631 3.87448L6.04583 3.77565C5.65272 3.77755 5.33239 3.46038 5.33048 3.0673C5.32857 2.67427 5.64561 2.35399 6.03858 2.35195H6.04631C6.4394 2.35195 6.75815 2.6707 6.75815 3.0638C6.75815 3.45689 6.43941 3.77564 6.04631 3.77564L6.04631 3.87448Z" fill="#FFC18E" stroke="#1D1D1D" stroke-width="0.2"/>
<path d="M8.48185 3.87448V3.77564V3.87448ZM8.48185 3.87448L8.48138 3.77565C8.08826 3.77755 7.76794 3.46038 7.76602 3.0673C7.76411 2.67427 8.08116 2.35399 8.47413 2.35195H8.48185C8.87495 2.35195 9.1937 2.6707 9.1937 3.0638C9.1937 3.45689 8.87495 3.77564 8.48186 3.77564L8.48185 3.87448Z" fill="#FFC18E" stroke="#1D1D1D" stroke-width="0.2"/>
<path d="M0.453517 48.5007V48.5006L0.453517 4.68782L0.453517 4.68765C0.453199 4.499 0.528157 4.3179 0.66162 4.18444L0.590916 4.11374L0.661536 4.18453C0.795406 4.05097 0.97661 3.97598 1.16536 3.97598H51.4998C51.6886 3.97598 51.8697 4.05098 52.0032 4.18444C52.1366 4.3179 52.2116 4.49905 52.2116 4.68782V48.5006C52.2116 48.6893 52.1366 48.8705 52.0032 49.0039C51.8697 49.1374 51.6885 49.2124 51.4998 49.2124H1.16536C0.976609 49.2124 0.795405 49.1374 0.661537 49.0039C0.528129 48.8704 0.4532 48.6894 0.453517 48.5007ZM1.87721 47.6887V47.7887H1.97721H50.6879H50.7879V47.6887V5.49967V5.39967H50.6879H1.97721H1.87721V5.49967V47.6887Z" fill="#FFC18E" stroke="#1D1D1D" stroke-width="0.2"/>
<path d="M1.1595 3.87533C0.944219 3.87569 0.73763 3.79016 0.585411 3.63758M1.1595 3.87533L1.15952 3.87531C1.3748 3.87567 1.58139 3.79014 1.73397 3.63756C1.88619 3.48534 1.97173 3.27875 1.97137 3.06347L0.585411 3.63758M1.1595 3.87533L1.1595 3.87529L1.15933 3.77533C1.15663 3.77533 1.15394 3.77532 1.15124 3.7753M1.1595 3.87533L1.09027 3.80317L1.09029 3.80315L1.11938 3.77524L1.15124 3.7753M0.585411 3.63758C0.433192 3.48536 0.347656 3.27877 0.347656 3.06348L0.585411 3.63758ZM1.15124 3.7753L1.15969 3.77531C1.34831 3.77563 1.52942 3.70069 1.66326 3.56685C1.79673 3.43339 1.87168 3.25229 1.87137 3.06363L1.87137 3.06339C1.87177 2.5599 2.27964 2.15203 2.78313 2.15162H2.78321C3.17631 2.15162 3.49506 1.83287 3.49506 1.43978C3.49506 1.04668 3.17631 0.72793 2.78321 0.72793V0.62793L2.78332 0.72793C2.16432 0.728624 1.57031 0.975051 1.13275 1.41296L1.13269 1.41302C0.694791 1.85057 0.448366 2.44456 0.447656 3.06354C0.447672 3.2523 0.522679 3.43342 0.656122 3.56686L0.656206 3.56695C0.78773 3.69879 0.965522 3.77349 1.15124 3.7753Z" fill="#FFC18E" stroke="#1D1D1D" stroke-width="0.2"/>
<path d="M1.1595 5.49933C0.944219 5.4997 0.73763 5.41416 0.585411 5.26158L1.1595 5.49933ZM1.1595 5.49933C1.37478 5.4997 1.58137 5.41416 1.73395 5.26158M1.1595 5.49933L1.73395 5.26158M1.73395 5.26158C1.88618 5.10936 1.97171 4.90277 1.97135 4.68749L1.73395 5.26158ZM1.15967 5.39933L1.15933 5.39933C0.970694 5.39965 0.789639 5.32471 0.656206 5.19095L0.656122 5.19087C0.522665 5.05741 0.447656 4.87626 0.447656 4.68749V3.0638C0.447656 2.6707 0.766406 2.35195 1.1595 2.35195C1.5526 2.35195 1.87135 2.6707 1.87135 3.0638L1.87135 4.68749L1.87135 4.68766C1.87166 4.87631 1.79671 5.05741 1.66324 5.19087C1.5294 5.32472 1.34829 5.39965 1.15967 5.39933Z" fill="#FFC18E" stroke="#1D1D1D" stroke-width="0.2"/>
<path d="M51.9979 3.56686C51.866 3.6988 51.6881 3.77349 51.5024 3.7753L51.494 3.77531C51.3053 3.77563 51.1243 3.70068 50.9908 3.56693L50.9908 3.56685C50.8573 3.43339 50.7823 3.25224 50.7823 3.06347V3.06339C50.7819 2.5599 50.374 2.15203 49.8705 2.15162H49.8704C49.4773 2.15162 49.1586 1.83287 49.1586 1.43978C49.1586 1.0467 49.4773 0.727961 49.8704 0.72793C50.4897 0.728639 51.0834 0.975054 51.5213 1.41299L51.5213 1.41302C51.9592 1.85056 52.2053 2.44455 52.206 3.0636V3.06365C52.2063 3.2523 52.1314 3.4334 51.9979 3.56686Z" fill="#FFC18E" stroke="#1D1D1D" stroke-width="0.2"/>
<path d="M51.4935 5.49933C51.2782 5.4997 51.0716 5.41416 50.9194 5.26158L51.4935 5.49933ZM51.4935 5.49933C51.7088 5.4997 51.9154 5.41416 52.0679 5.26158M51.4935 5.49933L52.0679 5.26158M52.0679 5.26158C52.2202 5.10936 52.3057 4.90277 52.3053 4.68749L52.0679 5.26158ZM51.4937 5.39933L51.4933 5.39933C51.3047 5.39965 51.1236 5.32471 50.9902 5.19095L50.9901 5.19087C50.8566 5.05741 50.7816 4.87626 50.7816 4.68749V3.0638C50.7816 2.6707 51.1004 2.35195 51.4935 2.35195C51.8866 2.35195 52.2053 2.6707 52.2053 3.0638L52.2053 4.68749L52.2053 4.68766C52.2056 4.87631 52.1307 5.05741 51.9972 5.19087C51.8634 5.32472 51.6823 5.39965 51.4937 5.39933Z" fill="#FFC18E" stroke="#1D1D1D" stroke-width="0.2"/>
<path d="M49.8696 2.15162H2.78255C2.38945 2.15162 2.0707 1.83287 2.0707 1.43978C2.0707 1.04668 2.38945 0.72793 2.78255 0.72793H49.8696C50.2627 0.72793 50.5814 1.04668 50.5814 1.43978C50.5814 1.83287 50.2627 2.15162 49.8696 2.15162Z" fill="#FFC18E" stroke="#1D1D1D" stroke-width="0.2"/>
<path d="M15.7889 43.5432H5.23958C4.84648 43.5432 4.52773 43.2245 4.52773 42.8314C4.52773 42.4383 4.84648 42.1195 5.23958 42.1195H15.7889C16.182 42.1195 16.5008 42.4383 16.5008 42.8314C16.5008 43.2245 16.182 43.5432 15.7889 43.5432Z" fill="#FFC18E" stroke="#1D1D1D" stroke-width="0.2"/>
<path d="M47.4491 43.5432H36.8997C36.5066 43.5432 36.1879 43.2245 36.1879 42.8314C36.1879 42.4383 36.5066 42.1195 36.8997 42.1195H47.4491C47.8422 42.1195 48.1609 42.4383 48.1609 42.8314C48.1609 43.2245 47.8422 43.5432 47.4491 43.5432Z" fill="#FFC18E" stroke="#1D1D1D" stroke-width="0.2"/>
<path d="M31.6073 43.5432H21.0579C20.6648 43.5432 20.3461 43.2245 20.3461 42.8314C20.3461 42.4383 20.6648 42.1195 21.0579 42.1195H31.6073C32.0007 42.1195 32.3191 42.4383 32.3191 42.8314C32.3191 43.2245 32.0007 43.5432 31.6073 43.5432Z" fill="#FFC18E" stroke="#1D1D1D" stroke-width="0.2"/>
<path d="M45.0087 18.3801H28.7708C28.3777 18.3801 28.059 18.0614 28.059 17.6683C28.059 17.2752 28.3777 16.9564 28.7708 16.9564H45.0087C45.4021 16.9564 45.7205 17.2752 45.7205 17.6683C45.7205 18.0614 45.4021 18.3801 45.0087 18.3801Z" fill="#FFC18E" stroke="#1D1D1D" stroke-width="0.2"/>
<path d="M45.0087 15.1438H28.7708C28.3777 15.1438 28.059 14.8251 28.059 14.432C28.059 14.0389 28.3777 13.7201 28.7708 13.7201H45.0087C45.4021 13.7201 45.7205 14.0388 45.7205 14.432C45.7205 14.8251 45.4021 15.1438 45.0087 15.1438Z" fill="#FFC18E" stroke="#1D1D1D" stroke-width="0.2"/>
<path d="M36.0767 22.4641H28.7708C28.3777 22.4641 28.059 22.1454 28.059 21.7523C28.059 21.3592 28.3777 21.0404 28.7708 21.0404H36.0767C36.4698 21.0404 36.7885 21.3592 36.7885 21.7523C36.7885 22.1454 36.4698 22.4641 36.0767 22.4641Z" fill="#FFC18E" stroke="#1D1D1D" stroke-width="0.2"/>
<path d="M32.8282 26.5178H28.7747C28.3816 26.5178 28.0629 26.1991 28.0629 25.806C28.0629 25.4129 28.3816 25.0941 28.7747 25.0941H32.8282C33.2216 25.0941 33.5401 25.4129 33.5401 25.806C33.5401 26.1991 33.2216 26.5178 32.8282 26.5178Z" fill="#FFC18E" stroke="#1D1D1D" stroke-width="0.2"/>
<path d="M10.5304 40.2987H10.5153C9.78793 40.2987 9.0907 40.0099 8.57671 39.4955L8.57668 39.4955C8.06266 38.9815 7.77383 38.2842 7.77383 37.5573C7.77383 36.8299 8.06267 36.1327 8.57668 35.6187L8.57668 35.6187C9.0907 35.1047 9.78793 34.8158 10.5153 34.8158C11.2422 34.8158 11.9395 35.1047 12.4535 35.6187L12.4535 35.6187C12.9678 36.1327 13.2567 36.8298 13.2567 37.5571C13.2557 38.2838 12.9664 38.9807 12.4524 39.4944L12.4524 39.4945C11.9423 40.0049 11.2516 40.2936 10.5304 40.2987ZM10.5682 36.2406L10.5674 36.2395H10.5153C9.98235 36.2395 9.50147 36.5602 9.29753 37.0529C9.09356 37.5451 9.20655 38.1119 9.58342 38.4887C9.96027 38.8656 10.527 38.9786 11.0193 38.7746C11.5118 38.5707 11.8331 38.0903 11.8331 37.5573V37.5572C11.8323 36.8474 11.2708 36.2691 10.5682 36.2406Z" fill="#FFC18E" stroke="#1D1D1D" stroke-width="0.2"/>
<path d="M28.3535 39.5655L28.2829 39.4948C27.7727 40.0046 27.0824 40.2933 26.3616 40.2987H26.3453C25.618 40.2987 24.9208 40.0099 24.4068 39.4955L24.4068 39.4955C23.8927 38.9815 23.6039 38.2842 23.6039 37.5573C23.6039 36.8299 23.8927 36.1327 24.4068 35.6187L24.4068 35.6187C24.9208 35.1047 25.618 34.8158 26.3453 34.8158C27.0723 34.8158 27.7696 35.1047 28.2836 35.6187L28.2836 35.6187C28.7979 36.1327 29.0867 36.8298 29.0868 37.5571C29.0857 38.2838 28.7965 38.9807 28.2828 39.4949L28.3535 39.5655ZM28.3535 39.5655C28.886 39.0327 29.1857 38.3104 29.1868 37.5573L26.4937 40.3947C27.1928 40.3572 27.8559 40.0629 28.3535 39.5655ZM26.3799 36.24L26.3792 36.2395H26.3453C25.8124 36.2395 25.332 36.5602 25.128 37.0528C24.9236 37.5451 25.0366 38.1119 25.4135 38.4887C25.7904 38.8656 26.3571 38.9786 26.8497 38.7746L26.8497 38.7746C27.3419 38.5707 27.6632 38.0903 27.6632 37.5573V37.5572C27.6624 36.8412 27.0914 36.2589 26.3799 36.24Z" fill="#FFC18E" stroke="#1D1D1D" stroke-width="0.2"/>
<path d="M42.1937 40.2987H42.1774C41.4504 40.2987 40.7532 40.0099 40.2388 39.4955C39.7248 38.9815 39.4359 38.2842 39.4359 37.5573C39.4359 36.8299 39.7248 36.1327 40.2388 35.6187C40.7532 35.1046 41.4504 34.8158 42.1774 34.8158C42.9043 34.8158 43.6016 35.1046 44.116 35.6187C44.116 35.6187 44.116 35.6187 44.116 35.6187L42.1937 40.2987ZM42.1937 40.2987C42.9144 40.2933 43.6047 40.0046 44.1149 39.4948L42.1937 40.2987ZM43.4952 37.5572C43.4944 36.8405 42.9224 36.2579 42.2099 36.2399L42.2093 36.2395H42.1774C41.6444 36.2395 41.1639 36.5603 40.96 37.0529C40.7561 37.5451 40.8686 38.1118 41.2455 38.4887C41.6224 38.8656 42.1891 38.9786 42.6817 38.7746L42.6818 38.7746C43.174 38.5707 43.4952 38.0903 43.4952 37.5573V37.5572Z" fill="#FFC18E" stroke="#1D1D1D" stroke-width="0.2"/>
</svg>
