<svg width="26" height="18" viewBox="0 0 26 18" fill="none" xmlns="http://www.w3.org/2000/svg">
<path d="M26 8.92244C26 8.86149 26 8.79224 25.9971 8.71191C25.9942 8.48753 25.9884 8.23546 25.9826 7.96676C25.9594 7.19391 25.9188 6.42382 25.8549 5.69806C25.7679 4.69806 25.6402 3.86427 25.4661 3.23823C25.2823 2.5849 24.9222 1.98905 24.4216 1.51024C23.9211 1.03142 23.2976 0.686415 22.6136 0.509695C21.7924 0.299169 20.1848 0.168975 17.9214 0.0886426C16.8449 0.0498614 15.6929 0.0249306 14.5408 0.0110802C14.1375 0.00554 13.7632 0.00277008 13.4266 0H12.5734C12.2368 0.00277008 11.8625 0.00554 11.4592 0.0110802C10.3071 0.0249306 9.15513 0.0498614 8.07857 0.0886426C5.81518 0.171745 4.20469 0.301939 3.38638 0.509695C2.70215 0.685982 2.07846 1.03085 1.57783 1.50973C1.0772 1.98861 0.717206 2.58469 0.533929 3.23823C0.35692 3.86427 0.232143 4.69806 0.145089 5.69806C0.08125 6.42382 0.040625 7.19391 0.0174107 7.96676C0.00870531 8.23546 0.00580353 8.48753 0.00290174 8.71191C0.00290174 8.79224 0 8.86149 0 8.92244V9.07756C0 9.1385 -4.44561e-08 9.20776 0.00290174 9.28809C0.00580353 9.51247 0.0116071 9.76454 0.0174107 10.0332C0.040625 10.8061 0.08125 11.5762 0.145089 12.3019C0.232143 13.3019 0.359821 14.1357 0.533929 14.7618C0.905357 16.0886 1.99643 17.1357 3.38638 17.4903C4.20469 17.7008 5.81518 17.831 8.07857 17.9114C9.15513 17.9501 10.3071 17.9751 11.4592 17.9889C11.8625 17.9945 12.2368 17.9972 12.5734 18H13.4266C13.7632 17.9972 14.1375 17.9945 14.5408 17.9889C15.6929 17.9751 16.8449 17.9501 17.9214 17.9114C20.1848 17.8283 21.7953 17.6981 22.6136 17.4903C24.0036 17.1357 25.0946 16.0914 25.4661 14.7618C25.6431 14.1357 25.7679 13.3019 25.8549 12.3019C25.9188 11.5762 25.9594 10.8061 25.9826 10.0332C25.9913 9.76454 25.9942 9.51247 25.9971 9.28809C25.9971 9.20776 26 9.1385 26 9.07756V8.92244ZM23.9107 9.06648C23.9107 9.12465 23.9107 9.18836 23.9078 9.26316C23.9049 9.47922 23.8991 9.71745 23.8933 9.97507C23.873 10.7119 23.8324 11.4488 23.7714 12.133C23.6931 13.0249 23.5828 13.7562 23.4464 14.2465C23.2665 14.8864 22.7384 15.3934 22.071 15.5623C21.4616 15.7175 19.9266 15.8421 17.8402 15.9169C16.7839 15.9557 15.6464 15.9806 14.5118 15.9945C14.1143 16 13.7458 16.0028 13.415 16.0028H12.585L11.4882 15.9945C10.3536 15.9806 9.21897 15.9557 8.15982 15.9169C6.07344 15.8393 4.53549 15.7175 3.92902 15.5623C3.26161 15.3906 2.73348 14.8864 2.55357 14.2465C2.41719 13.7562 2.30692 13.0249 2.22857 12.133C2.16763 11.4488 2.12991 10.7119 2.1067 9.97507C2.09799 9.71745 2.09509 9.47645 2.09219 9.26316C2.09219 9.18836 2.08929 9.12188 2.08929 9.06648V8.93352C2.08929 8.87535 2.08929 8.81163 2.09219 8.73684C2.09509 8.52077 2.10089 8.28255 2.1067 8.02493C2.12701 7.28809 2.16763 6.55125 2.22857 5.86703C2.30692 4.97507 2.41719 4.24377 2.55357 3.75346C2.73348 3.11357 3.26161 2.60665 3.92902 2.43767C4.53839 2.28255 6.07344 2.15789 8.15982 2.0831C9.21607 2.04432 10.3536 2.01939 11.4882 2.00554C11.8857 2 12.2542 1.99723 12.585 1.99723H13.415L14.5118 2.00554C15.6464 2.01939 16.781 2.04432 17.8402 2.0831C19.9266 2.16066 21.4645 2.28255 22.071 2.43767C22.7384 2.60942 23.2665 3.11357 23.4464 3.75346C23.5828 4.24377 23.6931 4.97507 23.7714 5.86703C23.8324 6.55125 23.8701 7.28809 23.8933 8.02493C23.902 8.28255 23.9049 8.52354 23.9078 8.73684C23.9078 8.81163 23.9107 8.87812 23.9107 8.93352V9.06648ZM10.4174 12.7119L17.1496 8.9723L10.4174 5.28809V12.7119Z" fill="#FFBE82"/>
</svg>
